<svg width="48" height="48" viewBox="0 0 48 48" fill="none" xmlns="http://www.w3.org/2000/svg">
<path d="M42.6155 41.3075L35.5385 34.2305H16C15.027 34.2305 14.194 33.884 13.501 33.191C12.808 32.4983 12.4615 31.6653 12.4615 30.692V29.4615H34.231C35.225 29.4615 36.076 29.1075 36.784 28.3995C37.492 27.6915 37.846 26.8403 37.846 25.846V12H39.077C40.05 12 40.883 12.3465 41.576 13.0395C42.269 13.7325 42.6155 14.5655 42.6155 15.5385V41.3075ZM8.3845 25.2925L11.2155 22.4615H30.231C30.4103 22.4615 30.5577 22.4038 30.673 22.2885C30.7883 22.1732 30.846 22.0257 30.846 21.846V8.6155C30.846 8.43583 30.7883 8.28833 30.673 8.173C30.5577 8.05767 30.4103 8 30.231 8H9C8.82067 8 8.67317 8.05767 8.5575 8.173C8.44217 8.28833 8.3845 8.43583 8.3845 8.6155V25.2925ZM5.3845 32.5385V8.6155C5.3845 7.62117 5.7385 6.77 6.4465 6.062C7.1545 5.354 8.00567 5 9 5H30.231C31.225 5 32.076 5.354 32.784 6.062C33.492 6.77 33.846 7.62117 33.846 8.6155V21.846C33.846 22.8403 33.492 23.6915 32.784 24.3995C32.076 25.1075 31.225 25.4615 30.231 25.4615H12.4615L5.3845 32.5385Z" fill="white"/>
</svg>
