<svg width="48" height="48" viewBox="0 0 48 48" fill="none" xmlns="http://www.w3.org/2000/svg">
<path d="M3.59668 38.6155V34.169C3.59668 33.1384 3.86268 32.2185 4.39468 31.4095C4.92668 30.6005 5.63718 29.9712 6.52618 29.5215C8.42685 28.5919 10.338 27.875 12.2597 27.371C14.1817 26.8674 16.2938 26.6155 18.5962 26.6155C20.8988 26.6155 23.011 26.8674 24.9327 27.371C26.8547 27.875 28.766 28.5919 30.6667 29.5215C31.5557 29.9712 32.2662 30.6005 32.7982 31.4095C33.3302 32.2185 33.5962 33.1384 33.5962 34.169V38.6155H3.59668ZM37.5962 38.6155V33.923C37.5962 32.6104 37.2748 31.3592 36.6322 30.1695C35.9892 28.9802 35.0772 27.9597 33.8962 27.108C35.2372 27.308 36.5103 27.6175 37.7157 28.0365C38.9207 28.4559 40.0707 28.9514 41.1657 29.523C42.199 30.0744 42.997 30.7242 43.5597 31.4725C44.1223 32.2205 44.4037 33.0374 44.4037 33.923V38.6155H37.5962ZM18.5962 23.3845C16.6712 23.3845 15.0233 22.6992 13.6527 21.3285C12.282 19.9575 11.5967 18.3095 11.5967 16.3845C11.5967 14.4595 12.282 12.8117 13.6527 11.441C15.0233 10.07 16.6712 9.38452 18.5962 9.38452C20.5212 9.38452 22.1692 10.07 23.5402 11.441C24.9108 12.8117 25.5962 14.4595 25.5962 16.3845C25.5962 18.3095 24.9108 19.9575 23.5402 21.3285C22.1692 22.6992 20.5212 23.3845 18.5962 23.3845ZM35.8652 16.3845C35.8652 18.3095 35.1798 19.9575 33.8092 21.3285C32.4385 22.6992 30.7907 23.3845 28.8657 23.3845C28.64 23.3845 28.3528 23.3589 28.0042 23.3075C27.6552 23.2562 27.368 23.1999 27.1427 23.1385C27.9313 22.1902 28.5375 21.1382 28.9612 19.9825C29.3845 18.8269 29.5962 17.6269 29.5962 16.3825C29.5962 15.1379 29.3802 13.9424 28.9482 12.796C28.5162 11.65 27.9143 10.595 27.1427 9.63102C27.4297 9.52835 27.7169 9.46169 28.0042 9.43102C28.2912 9.40002 28.5783 9.38452 28.8657 9.38452C30.7907 9.38452 32.4385 10.07 33.8092 11.441C35.1798 12.8117 35.8652 14.4595 35.8652 16.3845ZM6.59618 35.6155H30.5962V34.169C30.5962 33.7514 30.4917 33.3797 30.2827 33.054C30.074 32.7284 29.7427 32.4437 29.2887 32.2C27.6427 31.3514 25.9478 30.7084 24.2042 30.271C22.4605 29.834 20.5912 29.6155 18.5962 29.6155C16.6015 29.6155 14.7323 29.834 12.9887 30.271C11.245 30.7084 9.55018 31.3514 7.90418 32.2C7.45018 32.4437 7.11868 32.7284 6.90968 33.054C6.70068 33.3797 6.59618 33.7514 6.59618 34.169V35.6155ZM18.5962 20.3845C19.6962 20.3845 20.6378 19.9929 21.4212 19.2095C22.2045 18.4262 22.5962 17.4845 22.5962 16.3845C22.5962 15.2845 22.2045 14.3429 21.4212 13.5595C20.6378 12.7762 19.6962 12.3845 18.5962 12.3845C17.4962 12.3845 16.5545 12.7762 15.7712 13.5595C14.9878 14.3429 14.5962 15.2845 14.5962 16.3845C14.5962 17.4845 14.9878 18.4262 15.7712 19.2095C16.5545 19.9929 17.4962 20.3845 18.5962 20.3845Z" fill="white"/>
</svg>
