<svg width="48" height="48" viewBox="0 0 48 48" fill="none" xmlns="http://www.w3.org/2000/svg">
<path d="M15.3845 41V38H22.5V31.146C20.8027 30.805 19.3027 30.091 18 29.004C16.6973 27.9167 15.7717 26.5615 15.223 24.9385C12.9153 24.6642 10.968 23.6847 9.381 22C7.79367 20.3153 7 18.3153 7 16V14C7 13.182 7.2955 12.4775 7.8865 11.8865C8.4775 11.2955 9.182 11 10 11H14.654V7H33.346V11H38C38.818 11 39.5225 11.2955 40.1135 11.8865C40.7045 12.4775 41 13.182 41 14V16C41 18.3153 40.2063 20.3153 38.619 22C37.032 23.6847 35.0847 24.6642 32.777 24.9385C32.2283 26.5615 31.3027 27.9167 30 29.004C28.6973 30.091 27.1973 30.805 25.5 31.146V38H32.6155V41H15.3845ZM14.654 21.7155V14H10V16C10 17.395 10.4372 18.62 11.3115 19.675C12.1858 20.73 13.3 21.4102 14.654 21.7155ZM24 28.2695C25.7563 28.2695 27.2467 27.6572 28.471 26.4325C29.6953 25.2082 30.3075 23.7178 30.3075 21.9615V10H17.6925V21.9615C17.6925 23.7178 18.3047 25.2082 19.529 26.4325C20.7533 27.6572 22.2437 28.2695 24 28.2695ZM33.346 21.7155C34.7 21.4102 35.8142 20.73 36.6885 19.675C37.5628 18.62 38 17.395 38 16V14H33.346V21.7155Z" fill="white"/>
</svg>
