<svg width="48" height="48" viewBox="0 0 48 48" fill="none" xmlns="http://www.w3.org/2000/svg">
<path d="M13 43V34.9385C11.1 33.2052 9.625 31.2187 8.575 28.979C7.525 26.739 7 24.408 7 21.986C7 17.2677 8.65283 13.2572 11.9585 9.9545C15.2638 6.6515 19.2777 5 24 5C27.8847 5 31.3583 6.161 34.421 8.483C37.484 10.8047 39.4732 13.8168 40.3885 17.5195L42.725 26.7485C42.875 27.3188 42.7692 27.8367 42.4075 28.302C42.0462 28.7673 41.5642 29 40.9615 29H37V35.3845C37 36.3788 36.646 37.23 35.938 37.938C35.23 38.646 34.3788 39 33.3845 39H29V43H26V36H33.3845C33.5642 36 33.7117 35.9423 33.827 35.827C33.9423 35.7117 34 35.5642 34 35.3845V26H39.4L37.5 18.25C36.7333 15.204 35.0937 12.7342 32.581 10.8405C30.068 8.94683 27.2077 8 24 8C20.1333 8 16.8333 9.35183 14.1 12.0555C11.3667 14.7592 10 18.047 10 21.919C10 23.916 10.4083 25.813 11.225 27.61C12.0417 29.407 13.2 31.0043 14.7 32.402L16 33.6V43H13ZM23.807 31.8075C24.2973 31.8075 24.7085 31.6418 25.0405 31.3105C25.3725 30.9788 25.5385 30.5678 25.5385 30.0775C25.5385 29.5875 25.3727 29.1765 25.041 28.8445C24.7093 28.5122 24.2985 28.346 23.8085 28.346C23.3182 28.346 22.907 28.5118 22.575 28.8435C22.243 29.1752 22.077 29.5862 22.077 30.0765C22.077 30.5665 22.2428 30.9775 22.5745 31.3095C22.9058 31.6415 23.3167 31.8075 23.807 31.8075ZM22.6345 25.8695H25.05C25.05 25.1515 25.168 24.5277 25.404 23.998C25.6397 23.4687 26.0908 22.8437 26.7575 22.123C27.3448 21.4693 27.909 20.8072 28.45 20.1365C28.991 19.4662 29.2615 18.6258 29.2615 17.6155C29.2615 16.2908 28.7583 15.1712 27.752 14.2565C26.7457 13.3418 25.4808 12.8845 23.9575 12.8845C22.7398 12.8845 21.631 13.223 20.631 13.9C19.631 14.577 18.9078 15.468 18.4615 16.573L20.6345 17.5115C20.9192 16.8038 21.366 16.2347 21.975 15.804C22.584 15.373 23.2448 15.1575 23.9575 15.1575C24.7678 15.1575 25.4467 15.3862 25.994 15.8435C26.5417 16.3008 26.8155 16.8915 26.8155 17.6155C26.8155 18.3412 26.5975 18.9758 26.1615 19.5195C25.7255 20.0628 25.2307 20.6178 24.677 21.1845C24.0103 21.8718 23.5033 22.5655 23.156 23.2655C22.8083 23.9655 22.6345 24.8335 22.6345 25.8695Z" fill="white"/>
</svg>
