<svg width="24" height="24" viewBox="0 0 24 24" fill="none" xmlns="http://www.w3.org/2000/svg">
<path d="M12 2.04004C6.5 2.04004 2 6.53004 2 12.0601C2 17.0601 5.66 21.2101 10.44 21.9601V14.9601H7.9V12.0601H10.44V9.85004C10.44 7.34004 11.93 5.96004 14.22 5.96004C15.31 5.96004 16.45 6.15004 16.45 6.15004V8.62004H15.19C13.95 8.62004 13.56 9.39004 13.56 10.1801V12.0601H16.34L15.89 14.9601H13.56V21.9601C15.9164 21.5879 18.0622 20.3856 19.6099 18.5701C21.1576 16.7547 22.0054 14.4457 22 12.0601C22 6.53004 17.5 2.04004 12 2.04004Z" fill="white"/>
</svg>
