<svg width="48" height="48" viewBox="0 0 48 48" fill="none" xmlns="http://www.w3.org/2000/svg">
<path d="M23.5771 39.9425C23.7744 39.9425 23.9751 39.8963 24.1791 39.804C24.3827 39.7116 24.5436 39.6065 24.6616 39.4885L40.6576 23.4925C41.1089 23.0411 41.4488 22.559 41.6771 22.046C41.9051 21.5333 42.0191 20.995 42.0191 20.431C42.0191 19.8463 41.9051 19.2835 41.6771 18.7425C41.4488 18.2011 41.1089 17.7151 40.6576 17.2845L32.6576 9.28446C32.2269 8.83312 31.7603 8.50296 31.2576 8.29396C30.7553 8.08529 30.2118 7.98096 29.6271 7.98096C29.0631 7.98096 28.5214 8.08529 28.0021 8.29396C27.4827 8.50296 27.0039 8.83312 26.5656 9.28446L25.4191 10.431L29.1191 14.1615C29.5678 14.5898 29.8993 15.0783 30.1136 15.627C30.3276 16.1756 30.4346 16.7448 30.4346 17.3345C30.4346 18.5551 30.0269 19.5731 29.2116 20.3885C28.3963 21.2038 27.3783 21.6115 26.1576 21.6115C25.5679 21.6115 24.9968 21.514 24.4441 21.319C23.8918 21.1243 23.4014 20.8128 22.9731 20.3845L19.1846 16.627L10.4926 25.319C10.3413 25.4703 10.2278 25.6396 10.1521 25.827C10.0764 26.014 10.0386 26.2063 10.0386 26.404C10.0386 26.773 10.1643 27.0883 10.4156 27.35C10.6669 27.6116 10.9771 27.7425 11.3461 27.7425C11.5438 27.7425 11.7444 27.6963 11.9481 27.604C12.1521 27.5116 12.3131 27.4065 12.4311 27.2885L19.0001 20.7195L21.1076 22.827L14.5691 29.396C14.4181 29.5473 14.3048 29.7166 14.2291 29.904C14.1534 30.091 14.1156 30.2833 14.1156 30.481C14.1156 30.8373 14.2444 31.1443 14.5021 31.402C14.7598 31.6596 15.0668 31.7885 15.4231 31.7885C15.6208 31.7885 15.8214 31.7423 16.0251 31.65C16.2291 31.5576 16.3899 31.4525 16.5076 31.3345L23.3076 24.5655L25.4156 26.673L18.6461 33.473C18.5078 33.591 18.3976 33.7518 18.3156 33.9555C18.2336 34.1595 18.1926 34.3601 18.1926 34.5575C18.1926 34.9141 18.3214 35.2213 18.5791 35.479C18.8368 35.7366 19.1438 35.8655 19.5001 35.8655C19.6974 35.8655 19.8898 35.8276 20.0771 35.752C20.2641 35.6763 20.4333 35.5628 20.5846 35.4115L27.3846 28.6425L29.4926 30.75L22.6926 37.55C22.5413 37.7013 22.4278 37.877 22.3521 38.077C22.2764 38.277 22.2386 38.4693 22.2386 38.654C22.2386 39.023 22.3758 39.33 22.6501 39.575C22.9244 39.82 23.2334 39.9425 23.5771 39.9425ZM23.5461 42.942C22.4154 42.942 21.4296 42.5498 20.5886 41.7655C19.7476 40.9808 19.3079 40.0038 19.2696 38.8345C18.1363 38.7575 17.1894 38.355 16.4291 37.627C15.6687 36.8986 15.2566 35.9421 15.1926 34.7575C14.0079 34.6808 13.0503 34.2668 12.3196 33.5155C11.5886 32.7641 11.1974 31.8191 11.1461 30.6805C9.95642 30.6038 8.97442 30.1725 8.20008 29.3865C7.42575 28.6005 7.03859 27.6063 7.03859 26.404C7.03859 25.8143 7.15075 25.2366 7.37508 24.671C7.59942 24.1056 7.92575 23.609 8.35408 23.181L19.1846 12.381L25.0426 18.2385C25.1603 18.3768 25.3146 18.4871 25.5056 18.5695C25.6969 18.6515 25.9041 18.6925 26.1271 18.6925C26.4911 18.6925 26.8051 18.572 27.0691 18.331C27.3334 18.09 27.4656 17.7745 27.4656 17.3845C27.4656 17.1615 27.4246 16.9545 27.3426 16.7635C27.2603 16.5725 27.1499 16.418 27.0116 16.3L19.9961 9.28446C19.5654 8.83312 19.0956 8.50296 18.5866 8.29396C18.0776 8.08529 17.5308 7.98096 16.9461 7.98096C16.3821 7.98096 15.8469 8.08529 15.3406 8.29396C14.8339 8.50296 14.3551 8.83312 13.9041 9.28446L7.33458 15.8845C6.97058 16.2485 6.67258 16.6786 6.44058 17.175C6.20858 17.671 6.07208 18.1768 6.03108 18.6925C5.98975 19.1181 6.00892 19.5393 6.08858 19.956C6.16792 20.3726 6.30758 20.7643 6.50758 21.131L4.30008 23.3385C3.84875 22.6871 3.50908 21.9576 3.28108 21.15C3.05275 20.3423 2.95908 19.5231 3.00008 18.6925C3.04108 17.7718 3.24875 16.8826 3.62308 16.025C3.99742 15.1673 4.52175 14.4013 5.19608 13.727L11.7461 7.17696C12.4951 6.44862 13.3099 5.90062 14.1906 5.53296C15.0713 5.16496 15.9963 4.98096 16.9656 4.98096C17.9346 4.98096 18.8562 5.16496 19.7306 5.53296C20.6052 5.90062 21.4066 6.44862 22.1346 7.17696L23.2811 8.32296L24.4271 7.17696C25.1758 6.44862 25.9872 5.90062 26.8616 5.53296C27.7359 5.16496 28.6578 4.98096 29.6271 4.98096C30.5964 4.98096 31.5214 5.16496 32.4021 5.53296C33.2828 5.90062 34.0873 6.44862 34.8156 7.17696L42.7656 15.127C43.4936 15.8553 44.0513 16.6841 44.4386 17.6135C44.8256 18.5428 45.0191 19.4921 45.0191 20.4615C45.0191 21.4308 44.8256 22.3526 44.4386 23.227C44.0513 24.1013 43.4936 24.9025 42.7656 25.6305L26.7691 41.596C26.3281 42.037 25.8314 42.3716 25.2791 42.6C24.7264 42.828 24.1488 42.942 23.5461 42.942Z" fill="white"/>
</svg>
