<svg width="32" height="32" viewBox="0 0 32 32" fill="none" xmlns="http://www.w3.org/2000/svg">
<path d="M8.6665 10.6666C9.77108 10.6666 10.6665 9.7712 10.6665 8.66663C10.6665 7.56205 9.77108 6.66663 8.6665 6.66663C7.56193 6.66663 6.6665 7.56205 6.6665 8.66663C6.6665 9.7712 7.56193 10.6666 8.6665 10.6666Z" fill="#332C6D"/>
<path d="M6.6665 13.3333C6.6665 12.597 7.26346 12 7.99984 12H9.33317C10.0695 12 10.6665 12.5969 10.6665 13.3333V24C10.6665 24.7364 10.0695 25.3333 9.33317 25.3333H7.99984C7.26346 25.3333 6.6665 24.7364 6.6665 24V13.3333Z" fill="#332C6D"/>
<path d="M14.6668 25.3333H16.0002C16.7366 25.3333 17.3335 24.7364 17.3335 24V18C17.3335 16 21.3335 14.6667 21.3335 17.3333V24.0005C21.3335 24.7369 21.9304 25.3333 22.6668 25.3333H24.0002C24.7366 25.3333 25.3335 24.7364 25.3335 24V16C25.3335 13.3333 23.3335 12 20.6668 12C18.0002 12 17.3335 14 17.3335 14V13.3333C17.3335 12.5969 16.7366 12 16.0002 12H14.6668C13.9304 12 13.3335 12.597 13.3335 13.3333V24C13.3335 24.7364 13.9304 25.3333 14.6668 25.3333Z" fill="#332C6D"/>
<path fill-rule="evenodd" clip-rule="evenodd" d="M26.6668 1.33337C28.876 1.33337 30.6668 3.12424 30.6668 5.33337V26.6667C30.6668 28.8759 28.876 30.6667 26.6668 30.6667H5.3335C3.12436 30.6667 1.3335 28.8759 1.3335 26.6667V5.33337C1.3335 3.12424 3.12436 1.33337 5.3335 1.33337H26.6668ZM26.6668 4.00004C27.4032 4.00004 28.0002 4.597 28.0002 5.33337V26.6667C28.0002 27.4031 27.4032 28 26.6668 28H5.3335C4.59712 28 4.00016 27.4031 4.00016 26.6667V5.33337C4.00016 4.597 4.59712 4.00004 5.3335 4.00004H26.6668Z" fill="#332C6D"/>
</svg>
