<svg width="48" height="48" viewBox="0 0 48 48" fill="none" xmlns="http://www.w3.org/2000/svg">
<path d="M3.5965 38.6155V34.169C3.5965 33.1384 3.8625 32.2185 4.3945 31.4095C4.9265 30.6005 5.637 29.9712 6.526 29.5215C8.42666 28.5919 10.3378 27.875 12.2595 27.371C14.1815 26.8674 16.2937 26.6155 18.596 26.6155C20.8987 26.6155 23.0108 26.8674 24.9325 27.371C26.8545 27.875 28.7658 28.5919 30.6665 29.5215C31.5555 29.9712 32.266 30.6005 32.798 31.4095C33.33 32.2185 33.596 33.1384 33.596 34.169V38.6155H3.5965ZM37.596 38.6155V33.923C37.596 32.6104 37.2747 31.3592 36.632 30.1695C35.989 28.9802 35.077 27.9597 33.896 27.108C35.237 27.308 36.5102 27.6175 37.7155 28.0365C38.9205 28.4559 40.0705 28.9514 41.1655 29.523C42.1988 30.0744 42.9968 30.7242 43.5595 31.4725C44.1222 32.2205 44.4035 33.0374 44.4035 33.923V38.6155H37.596ZM18.596 23.3845C16.671 23.3845 15.0232 22.6992 13.6525 21.3285C12.2818 19.9575 11.5965 18.3095 11.5965 16.3845C11.5965 14.4595 12.2818 12.8117 13.6525 11.441C15.0232 10.07 16.671 9.38452 18.596 9.38452C20.521 9.38452 22.169 10.07 23.54 11.441C24.9107 12.8117 25.596 14.4595 25.596 16.3845C25.596 18.3095 24.9107 19.9575 23.54 21.3285C22.169 22.6992 20.521 23.3845 18.596 23.3845ZM35.865 16.3845C35.865 18.3095 35.1797 19.9575 33.809 21.3285C32.4383 22.6992 30.7905 23.3845 28.8655 23.3845C28.6398 23.3845 28.3527 23.3589 28.004 23.3075C27.655 23.2562 27.3678 23.1999 27.1425 23.1385C27.9312 22.1902 28.5373 21.1382 28.961 19.9825C29.3843 18.8269 29.596 17.6269 29.596 16.3825C29.596 15.1379 29.38 13.9424 28.948 12.796C28.516 11.65 27.9142 10.595 27.1425 9.63102C27.4295 9.52835 27.7167 9.46169 28.004 9.43102C28.291 9.40002 28.5782 9.38452 28.8655 9.38452C30.7905 9.38452 32.4383 10.07 33.809 11.441C35.1797 12.8117 35.865 14.4595 35.865 16.3845ZM6.596 35.6155H30.596V34.169C30.596 33.7514 30.4915 33.3797 30.2825 33.054C30.0738 32.7284 29.7425 32.4437 29.2885 32.2C27.6425 31.3514 25.9477 30.7084 24.204 30.271C22.4603 29.834 20.591 29.6155 18.596 29.6155C16.6013 29.6155 14.7322 29.834 12.9885 30.271C11.2448 30.7084 9.55 31.3514 7.904 32.2C7.45 32.4437 7.1185 32.7284 6.9095 33.054C6.7005 33.3797 6.596 33.7514 6.596 34.169V35.6155ZM18.596 20.3845C19.696 20.3845 20.6377 19.9929 21.421 19.2095C22.2043 18.4262 22.596 17.4845 22.596 16.3845C22.596 15.2845 22.2043 14.3429 21.421 13.5595C20.6377 12.7762 19.696 12.3845 18.596 12.3845C17.496 12.3845 16.5543 12.7762 15.771 13.5595C14.9877 14.3429 14.596 15.2845 14.596 16.3845C14.596 17.4845 14.9877 18.4262 15.771 19.2095C16.5543 19.9929 17.496 20.3845 18.596 20.3845Z" fill="white"/>
</svg>
