<svg width="68" height="16" viewBox="0 0 68 16" fill="none" xmlns="http://www.w3.org/2000/svg">
<path d="M18.3379 3.68066H20.5336L22.1059 9.40568H22.1474L23.6982 3.68066H25.8371L23.256 11.2237H20.9359L18.3379 3.68066Z" fill="white"/>
<path d="M27.7336 10.9005C27.1838 10.5864 26.7402 10.1154 26.4576 9.54732C26.1475 8.89772 25.9954 8.18497 26.0154 7.46452C25.997 6.74255 26.1521 6.02828 26.4653 5.37865C26.7447 4.81215 27.1822 4.33801 27.7243 4.01476C28.3063 3.68225 28.9665 3.51599 29.636 3.53292C30.301 3.51292 30.9582 3.673 31.5399 3.99473C32.073 4.30415 32.5044 4.76135 32.7823 5.31247C33.0848 5.93129 33.2353 6.61324 33.2199 7.30289V7.94329H27.0181V6.64249H32.2387L31.2636 7.85863V7.06428C31.2745 6.68407 31.2053 6.30689 31.0595 5.95593C30.9428 5.68036 30.7462 5.44793 30.4959 5.28476C30.2424 5.13236 29.9509 5.05383 29.6559 5.05999C29.0402 5.04153 28.4768 5.40329 28.2358 5.97132C28.0882 6.31615 28.0177 6.68868 28.0299 7.06428V7.86631C28.0193 8.23116 28.0898 8.59444 28.2358 8.92849C28.3616 9.20865 28.5672 9.4442 28.8284 9.60583C29.1077 9.769 29.4272 9.8506 29.7496 9.84135C29.9999 9.84751 30.2472 9.80287 30.4792 9.70897C30.668 9.63047 30.8398 9.51655 30.9843 9.37031C31.1024 9.25329 31.1947 9.11169 31.2513 8.9562L31.2652 8.91311H33.1446L33.1231 8.99161C33.06 9.28716 32.9497 9.56889 32.7946 9.82751C32.6196 10.12 32.3953 10.3801 32.1312 10.5972C31.8288 10.845 31.4849 11.0359 31.1146 11.1591C30.6616 11.3084 30.1858 11.3807 29.7083 11.3715C29.0202 11.3915 28.3385 11.2284 27.7336 10.9005Z" fill="white"/>
<path d="M34.2655 3.68047H36.3136V4.99666H36.3551C36.4426 4.58255 36.6575 4.2054 36.9693 3.91908C37.2765 3.65738 37.6696 3.51884 38.0718 3.53268C38.1792 3.53268 38.2867 3.53884 38.3942 3.55423C38.4849 3.56503 38.5724 3.58348 38.6599 3.60967V5.4246C38.5569 5.38151 38.4479 5.35226 38.3375 5.33687C38.1979 5.31532 38.0579 5.30455 37.9167 5.30455C37.6172 5.29684 37.3209 5.36458 37.0538 5.50159C36.8158 5.63242 36.6253 5.8341 36.5072 6.07884C36.3737 6.36826 36.3091 6.68383 36.3184 7.0025V11.222H34.2655V3.68047Z" fill="white"/>
<path d="M39.491 3.68062H41.5391V4.91212H41.5806C41.7665 4.49494 42.0689 4.14089 42.4511 3.89305C42.8796 3.63289 43.3741 3.50358 43.8747 3.52052C44.7038 3.52052 45.344 3.7699 45.7941 4.2702C46.2439 4.77052 46.4697 5.46324 46.471 6.34838V11.2144H44.4229V6.78249C44.4229 6.28988 44.3061 5.90812 44.0758 5.63564C43.8454 5.36316 43.4983 5.22772 43.0408 5.22772C42.7615 5.22156 42.4865 5.29542 42.2471 5.44014C42.0213 5.58177 41.8402 5.78342 41.725 6.02356C41.596 6.29297 41.533 6.59006 41.5391 6.8887V11.2206H39.491V3.68062Z" fill="white"/>
<path d="M49.2409 10.9078C48.6853 10.5968 48.2352 10.1257 47.9482 9.55771C47.6258 8.90347 47.4676 8.17995 47.4875 7.45027V7.4364C47.466 6.71136 47.6243 5.99246 47.9482 5.34438C48.2429 4.77787 48.6943 4.3099 49.2502 3.99742C49.8506 3.67259 50.5246 3.50942 51.2066 3.52635C51.8912 3.50787 52.57 3.66643 53.1749 3.98816C53.7308 4.2976 54.1838 4.76403 54.4756 5.33054C54.7995 5.98168 54.9575 6.70366 54.936 7.43027V7.44411C54.9562 8.17534 54.7979 8.89883 54.4756 9.55462C54.1915 10.1227 53.7446 10.5937 53.1932 10.9078C51.9511 11.5312 50.4863 11.5312 49.2441 10.9078H49.2409ZM52.0894 9.49304C52.3487 9.29139 52.5453 9.01736 52.6543 8.7064C52.7972 8.3031 52.8647 7.87822 52.8541 7.45027V7.4364C52.8647 7.01307 52.7956 6.59283 52.6514 6.19566C52.5392 5.88318 52.3413 5.6107 52.0785 5.4075C51.8269 5.22584 51.5228 5.1304 51.2127 5.13656C50.9039 5.1304 50.603 5.22584 50.3543 5.41059C50.0931 5.61379 49.8953 5.88779 49.7814 6.19875C49.6372 6.59283 49.5697 7.01 49.5787 7.43027V7.44411C49.5681 7.87206 49.6357 8.29694 49.7785 8.70027C49.8875 9.01275 50.087 9.28678 50.3496 9.48688C50.6046 9.67008 50.9132 9.76552 51.2265 9.75782C51.5351 9.76707 51.8391 9.6747 52.0894 9.49304Z" fill="white"/>
<path d="M57.3191 11.0725C56.8707 10.9 56.4762 10.6106 56.1799 10.2319C55.9049 9.86865 55.736 9.43609 55.6884 8.9835V8.92038H57.6846L57.6984 8.9835C57.7537 9.2606 57.9117 9.50843 58.1405 9.67313C58.4262 9.85171 58.7594 9.93793 59.0957 9.91945C59.3215 9.92406 59.547 9.89174 59.762 9.82401C59.9247 9.77321 60.0708 9.67929 60.1859 9.55307C60.2886 9.43761 60.3423 9.28676 60.3394 9.13126V9.12203C60.3455 8.93577 60.2657 8.75721 60.1229 8.63713C59.8925 8.47857 59.63 8.3739 59.3553 8.32926L58.0791 8.05523C57.3497 7.90438 56.8002 7.64729 56.4302 7.28555C56.0615 6.9207 55.8604 6.41886 55.8759 5.90009V5.88931C55.865 5.43979 56.0017 5.00107 56.2658 4.63779C56.5499 4.26678 56.9305 3.98355 57.3667 3.81729C57.8966 3.61409 58.4615 3.51555 59.0281 3.52633C59.6069 3.51094 60.1827 3.62025 60.7171 3.84654C61.1469 4.02971 61.5185 4.32683 61.792 4.70705C62.0391 5.05958 62.1774 5.47982 62.188 5.91086V5.98014H60.2963V5.92473C60.2641 5.65995 60.129 5.41825 59.9202 5.25353C59.6638 5.05958 59.3475 4.96414 59.0265 4.98259C58.8177 4.97798 58.6089 5.01185 58.4123 5.08113C58.2573 5.13499 58.1192 5.22891 58.0131 5.35513C57.9179 5.47521 57.8689 5.62454 57.8734 5.77694C57.8702 5.96473 57.9532 6.14331 58.0977 6.26339C58.3325 6.42809 58.6044 6.53433 58.8898 6.57126L60.1673 6.84526C60.9568 7.00998 61.5233 7.2563 61.8688 7.58419C62.2189 7.93209 62.4061 8.41238 62.383 8.90652V8.91422C62.3923 9.37913 62.2433 9.83169 61.9625 10.2012C61.6568 10.5845 61.2576 10.8785 60.8017 11.0555C60.258 11.2695 59.6776 11.3742 59.0941 11.3634C58.4892 11.3834 57.8857 11.2849 57.3191 11.0725Z" fill="white"/>
<path d="M64.5264 10.8482C64.1243 10.4957 63.9229 9.91685 63.9229 9.11021V5.22786H62.8789V3.68077H63.9229V1.8335H65.9928V3.68077H67.3749V5.22786H65.9928V8.88546C65.9928 9.23799 66.0713 9.48429 66.2277 9.6213C66.4274 9.77215 66.6761 9.84605 66.9264 9.82757C67.0078 9.82757 67.0908 9.8245 67.1722 9.81679C67.2411 9.81679 67.3073 9.80293 67.3685 9.7937V11.2977C67.2549 11.3162 67.1169 11.3346 66.9509 11.35C66.7605 11.3685 66.5703 11.3778 66.3782 11.3762C65.546 11.3762 64.9289 11.2007 64.5264 10.8482Z" fill="white"/>
<path d="M31.2083 14.1219H30.0643C30.0643 14.2466 30.1119 14.3682 30.1962 14.4606C30.2808 14.5345 30.3915 14.5729 30.5034 14.5668C30.5894 14.5698 30.6753 14.5498 30.7521 14.5098C30.8181 14.4682 30.8718 14.4067 30.9056 14.3359H30.9394L31.236 14.5268C31.1806 14.653 31.0883 14.7592 30.9732 14.8346C30.8319 14.9193 30.6692 14.9593 30.505 14.9516C30.3407 14.9562 30.1763 14.9193 30.0289 14.8454C29.897 14.7777 29.7895 14.6699 29.722 14.5375C29.6451 14.3805 29.6081 14.2066 29.6129 14.0311C29.6068 13.8525 29.6467 13.677 29.7281 13.5185C29.7986 13.3876 29.9047 13.2814 30.035 13.2106C30.1718 13.1413 30.3223 13.1059 30.4742 13.109C30.6862 13.0936 30.895 13.1659 31.0516 13.3091C31.1958 13.4692 31.2682 13.6816 31.2527 13.8972C31.2527 13.9695 31.2511 14.0434 31.2434 14.1157L31.2083 14.1219ZM30.8242 13.8325C30.829 13.7263 30.7952 13.6201 30.7293 13.5369C30.6617 13.4707 30.5678 13.4369 30.4726 13.443C30.247 13.443 30.1135 13.5739 30.0749 13.8325H30.8242Z" fill="white"/>
<path d="M31.6396 14.9138V13.125H32.0679V13.3636H32.1017C32.2831 13.0912 32.6438 13.0049 32.9294 13.165C33.0124 13.2205 33.0752 13.3021 33.1074 13.3975H33.1411C33.1888 13.3005 33.2627 13.2189 33.3531 13.1604C33.4529 13.1065 33.5651 13.0804 33.6771 13.085C34.0458 13.085 34.2298 13.2897 34.2298 13.7008V14.9H33.783V13.7562C33.7907 13.6761 33.7694 13.5961 33.7218 13.5299C33.6694 13.4791 33.5973 13.4545 33.5252 13.4606C33.2811 13.4606 33.1582 13.6253 33.1582 13.9532V14.9H32.7113V13.7562C32.7174 13.6761 32.6959 13.5961 32.6499 13.5299C32.5961 13.4791 32.5241 13.4545 32.452 13.4606C32.349 13.456 32.2506 13.4976 32.1831 13.5761C32.1094 13.6838 32.0756 13.8131 32.0865 13.944V14.9L31.6396 14.9138Z" fill="white"/>
<path d="M34.7156 15.6355V13.1248H35.1624V13.3572H35.1962C35.2452 13.2695 35.3175 13.1986 35.4063 13.1525C35.5016 13.1063 35.6077 13.0817 35.7136 13.0847C35.8455 13.0817 35.9761 13.117 36.0883 13.1863C36.2003 13.2618 36.2878 13.368 36.3386 13.4942C36.4014 13.6574 36.4323 13.8329 36.4275 14.0084C36.4323 14.1838 36.3998 14.3593 36.3322 14.521C36.2785 14.6472 36.1865 14.755 36.0713 14.8289C35.9545 14.8981 35.821 14.9336 35.6843 14.932C35.5862 14.9336 35.4877 14.9151 35.3973 14.875C35.3143 14.8366 35.2438 14.7765 35.193 14.7011L35.1592 14.7088V15.6201L34.7156 15.6355ZM35.8654 14.4363C36.0053 14.1777 36.0053 13.8668 35.8654 13.6081C35.7918 13.5158 35.6766 13.4665 35.5585 13.4757C35.4433 13.4711 35.3343 13.5219 35.2622 13.6112C35.1162 13.8652 35.1162 14.1777 35.2622 14.4317C35.3343 14.521 35.4433 14.5718 35.5585 14.5672C35.6766 14.5764 35.7904 14.5272 35.8654 14.4363Z" fill="white"/>
<path d="M37.163 14.8399C37.0308 14.7676 36.9249 14.6583 36.8558 14.5244C36.71 14.2057 36.71 13.8393 36.8558 13.5207C36.9233 13.3867 37.0308 13.2759 37.163 13.2036C37.4532 13.0604 37.7939 13.0604 38.0841 13.2036C38.2163 13.2759 38.3238 13.3867 38.3913 13.5207C38.5387 13.8393 38.5387 14.2057 38.3913 14.5244C38.3222 14.6583 38.2163 14.7676 38.0841 14.8399C37.7939 14.9846 37.4532 14.9846 37.163 14.8399ZM38.0349 14.0225C38.0474 13.8763 38.0088 13.73 37.929 13.6084C37.8538 13.5176 37.7386 13.4699 37.6221 13.476C37.3457 13.476 37.2074 13.6592 37.2074 14.0225C37.2074 14.3858 37.3457 14.5675 37.6221 14.5675C37.8985 14.5675 38.0349 14.3858 38.0349 14.0225Z" fill="white"/>
<path d="M39.5955 14.9133H39.1348L38.7063 13.1245H39.121L39.3819 14.3299H39.4157L39.7535 13.1245H40.1421L40.4921 14.3299H40.5259L40.7778 13.1245H41.18L40.7563 14.9133H40.2956L39.9594 13.6987H39.9256L39.5955 14.9133Z" fill="white"/>
<path d="M42.9855 14.1219H41.8434C41.8434 14.2481 41.8907 14.3682 41.9753 14.4606C42.0596 14.5345 42.1702 14.5729 42.2825 14.5668C42.3684 14.5698 42.4543 14.5498 42.5312 14.5098C42.5972 14.4682 42.6509 14.4067 42.6847 14.3359H42.7185L43.0148 14.5268C42.9581 14.653 42.8674 14.7592 42.7522 14.8346C42.611 14.9193 42.4466 14.9593 42.2825 14.9516C42.1181 14.9562 41.9537 14.9193 41.8064 14.8454C41.6745 14.7777 41.5667 14.6699 41.4992 14.5375C41.3502 14.2142 41.3502 13.8417 41.4992 13.5185C41.5699 13.3876 41.6758 13.2814 41.8064 13.2106C41.9415 13.1413 42.092 13.1074 42.2439 13.109C42.4559 13.0936 42.6647 13.1659 42.823 13.3091C42.9656 13.4692 43.0379 13.6816 43.0225 13.8972C43.0225 13.9695 43.0209 14.0434 43.0132 14.1157L42.9855 14.1219ZM42.5988 13.8325C42.6049 13.7263 42.5711 13.6216 42.5051 13.5369C42.436 13.4707 42.3423 13.4353 42.2471 13.443C42.0213 13.443 41.8894 13.5739 41.8495 13.8325H42.5988Z" fill="white"/>
<path d="M43.417 14.9136V13.1248H43.8513V13.3896H43.8851C43.9189 13.3019 43.9774 13.2264 44.054 13.171C44.1309 13.1233 44.2184 13.0987 44.3091 13.1017C44.3889 13.0956 44.4687 13.1141 44.5392 13.1541L44.4642 13.5405H44.4304C44.4027 13.5297 44.3751 13.5205 44.3458 13.5143C44.3136 13.5112 44.2799 13.5112 44.2477 13.5143C44.137 13.5081 44.0296 13.5574 43.962 13.6452C43.8867 13.7729 43.8529 13.9207 43.8636 14.0685V14.9028L43.417 14.9136Z" fill="white"/>
<path d="M44.8376 12.8429C44.7376 12.7367 44.7376 12.5719 44.8376 12.4657C44.8913 12.4164 44.9618 12.3887 45.0341 12.3918C45.0847 12.3918 45.1339 12.4026 45.1783 12.4257C45.2182 12.4472 45.252 12.4796 45.2751 12.518C45.3227 12.6027 45.3227 12.7043 45.2751 12.789C45.252 12.829 45.2182 12.8613 45.1783 12.8829C45.1339 12.906 45.0847 12.9168 45.0341 12.9168C44.9618 12.9198 44.8913 12.8921 44.8376 12.8429ZM44.8112 14.9134V13.1246H45.2581V14.9072L44.8112 14.9134Z" fill="white"/>
<path d="M45.7693 14.9134V13.1246H46.1975V13.3863L46.2313 13.394C46.4265 13.0877 46.8319 12.9984 47.1373 13.1939C47.1681 13.2124 47.1958 13.2355 47.2218 13.2586C47.3277 13.3987 47.3785 13.5726 47.366 13.7481V14.9072H46.9194V13.8035C46.9285 13.7127 46.9024 13.6203 46.8487 13.5464C46.7872 13.4895 46.7042 13.4602 46.6215 13.4679C46.5079 13.4618 46.3989 13.5079 46.3236 13.5926C46.2422 13.7065 46.2039 13.8451 46.2161 13.9836V14.9072L45.7693 14.9134Z" fill="white"/>
<path d="M47.8682 15.5397C47.736 15.4689 47.6562 15.3288 47.6578 15.1795C47.6546 15.0933 47.6868 15.0102 47.7469 14.9486C47.819 14.8824 47.9081 14.8409 48.0047 14.8285V14.7947C47.9525 14.7654 47.9081 14.7239 47.8743 14.6731C47.8483 14.6253 47.8344 14.573 47.8358 14.5191C47.8358 14.376 47.928 14.2805 48.1137 14.2297V14.1959C48.0262 14.1481 47.9509 14.0773 47.8988 13.9927C47.8483 13.9034 47.8219 13.8002 47.8251 13.6971C47.8251 13.5893 47.8512 13.4831 47.9065 13.3892C47.9632 13.2968 48.0477 13.223 48.1459 13.1783C48.2643 13.126 48.3933 13.1013 48.5223 13.1044C48.6452 13.0983 48.7678 13.1244 48.8768 13.1814C48.9322 13.0998 48.9659 13.0028 48.9721 12.9043L49.0058 12.8843L49.3269 12.9628C49.3192 13.0398 49.2944 13.1121 49.2516 13.1768C49.2024 13.2414 49.1394 13.2953 49.0673 13.3307V13.3661C49.1718 13.46 49.2285 13.5955 49.2207 13.7356C49.2223 13.8403 49.1947 13.9419 49.1394 14.0311C49.0779 14.1204 48.9936 14.1897 48.8938 14.2328C48.7771 14.2851 48.6497 14.3113 48.5207 14.3082H48.3624C48.3273 14.3067 48.2935 14.3175 48.2672 14.3405C48.2443 14.3621 48.2321 14.3929 48.2321 14.4252C48.2321 14.4606 48.2472 14.4945 48.2765 14.5145C48.3164 14.5376 48.3624 14.5499 48.4087 14.5484L48.8077 14.5638C49.2008 14.5745 49.3974 14.7454 49.3974 15.0718C49.399 15.1811 49.3684 15.2873 49.3099 15.3796C49.2394 15.4797 49.141 15.5536 49.0258 15.5936C48.863 15.6521 48.6896 15.6798 48.5161 15.6737C48.2919 15.6875 48.0693 15.6413 47.8682 15.5397ZM48.8508 15.2796C48.9138 15.2473 48.9521 15.1826 48.9537 15.1118C48.9582 15.0641 48.9383 15.0179 48.9016 14.9871C48.8492 14.9563 48.7909 14.9425 48.7311 14.9455L48.381 14.9286H48.318C48.2565 14.924 48.1967 14.9409 48.1459 14.9763C48.106 15.0087 48.0831 15.0595 48.086 15.1118C48.086 15.1857 48.1291 15.2534 48.1951 15.2857C48.2964 15.3319 48.4071 15.3535 48.5175 15.3473C48.6327 15.355 48.7478 15.3304 48.8508 15.2796ZM48.7234 13.9188C48.7755 13.8587 48.8016 13.7802 48.7954 13.7017C48.8016 13.6232 48.7755 13.5447 48.7234 13.4862C48.6082 13.3861 48.4361 13.3861 48.3212 13.4862C48.2273 13.6155 48.2273 13.7895 48.3212 13.9188C48.4361 14.0188 48.6082 14.0188 48.7234 13.9188Z" fill="white"/>
<path d="M50.5046 12.8429C50.4049 12.7367 50.4049 12.5719 50.5046 12.4657C50.5583 12.4164 50.6288 12.3887 50.7012 12.3918C50.7517 12.3918 50.8009 12.4026 50.8453 12.4257C50.8852 12.4472 50.919 12.4796 50.9422 12.518C50.9898 12.6027 50.9898 12.7043 50.9422 12.789C50.919 12.829 50.8852 12.8613 50.8453 12.8829C50.8009 12.906 50.7517 12.9168 50.7012 12.9168C50.6288 12.9198 50.5583 12.8921 50.5046 12.8429ZM50.4786 14.9134V13.1246H50.9251V14.9072L50.4786 14.9134Z" fill="white"/>
<path d="M51.4365 14.9134V13.1246H51.865V13.3863L51.8988 13.394C52.0938 13.0877 52.4991 12.9984 52.8048 13.1939C52.8354 13.2124 52.863 13.2355 52.8891 13.2586C52.9952 13.3987 53.0457 13.5726 53.0335 13.7481V14.9072H52.5867V13.8035C52.596 13.7127 52.5699 13.6203 52.5162 13.5464C52.4547 13.4895 52.3717 13.4602 52.2887 13.4679C52.1752 13.4618 52.0661 13.5079 51.9908 13.5926C51.9094 13.7065 51.8711 13.8451 51.8834 13.9836V14.9072L51.4365 14.9134Z" fill="white"/>
<path d="M53.519 14.9131V13.1243H53.9473V13.386L53.9811 13.3937C54.084 13.1936 54.296 13.072 54.52 13.0858C54.6875 13.0704 54.8532 13.132 54.9716 13.2536C55.0775 13.3937 55.128 13.5677 55.1158 13.7432V14.9023H54.6705V13.7986C54.6782 13.7062 54.6537 13.6154 54.5984 13.5415C54.537 13.483 54.454 13.4553 54.371 13.463C54.2574 13.4568 54.1484 13.503 54.0734 13.5877C53.992 13.7016 53.9534 13.8401 53.9656 13.9787V14.9023L53.519 14.9131Z" fill="white"/>
<path d="M55.9203 14.8399C55.7883 14.7676 55.6822 14.6583 55.6133 14.5244C55.4673 14.2057 55.4673 13.8393 55.6133 13.5207C55.6809 13.3867 55.7883 13.2759 55.9203 13.2036C56.2104 13.0604 56.5514 13.0604 56.8416 13.2036C56.9736 13.2759 57.081 13.3867 57.1486 13.5207C57.2946 13.8393 57.2946 14.2057 57.1486 14.5244C57.0797 14.6583 56.9736 14.7676 56.8416 14.8399C56.5514 14.9846 56.2104 14.9846 55.9203 14.8399ZM56.7924 14.0225C56.8047 13.8763 56.7664 13.73 56.6866 13.6084C56.6113 13.5176 56.4961 13.4699 56.3793 13.476C56.1046 13.476 55.9663 13.6592 55.9663 14.0225C55.9663 14.3858 56.1046 14.5675 56.3793 14.5675C56.6541 14.5675 56.7924 14.3858 56.7924 14.0225Z" fill="white"/>
<path d="M58.601 14.9133H58.0683L57.411 13.1245H57.8717L58.3124 14.3945H58.3491L58.7931 13.1245H59.2535L58.601 14.9133Z" fill="white"/>
<path d="M59.6517 14.884C59.5703 14.8424 59.5028 14.7778 59.4581 14.6977C59.4105 14.6069 59.3876 14.5068 59.3905 14.4052C59.3876 14.3113 59.4105 14.219 59.4581 14.1389C59.5105 14.062 59.5841 14.0019 59.6685 13.9635C59.7868 13.9111 59.911 13.8742 60.0385 13.8572C60.1214 13.8465 60.2028 13.828 60.2813 13.8003C60.3241 13.788 60.3627 13.7649 60.3933 13.731C60.4425 13.6571 60.4287 13.5601 60.3624 13.5016C60.3026 13.4662 60.2337 13.4508 60.1645 13.457C60.0661 13.457 59.9709 13.4785 59.8834 13.5232C59.7945 13.5647 59.7161 13.6248 59.6501 13.6971H59.6179L59.432 13.4139C59.5243 13.3123 59.6363 13.2322 59.7621 13.1799C59.8972 13.1229 60.0416 13.0952 60.1874 13.0968C60.3717 13.0814 60.5545 13.1368 60.6989 13.2507C60.808 13.3646 60.863 13.5201 60.8524 13.6771V14.4468C60.8524 14.5269 60.8862 14.5669 60.9569 14.5669C60.983 14.5669 61.0106 14.5623 61.0351 14.5515L61.0582 14.5592L61.0904 14.8671C61.0583 14.8855 61.0245 14.8994 60.9875 14.9071C60.9399 14.9179 60.8907 14.9225 60.8417 14.9225C60.7542 14.9271 60.668 14.9056 60.5928 14.8609C60.5284 14.8147 60.484 14.7455 60.4654 14.6685H60.4316C60.3425 14.8548 60.1491 14.9656 59.9448 14.9471C59.8435 14.9487 59.7437 14.9271 59.6517 14.884ZM60.338 14.5084C60.4039 14.4268 60.4364 14.3221 60.43 14.2175V14.0373L60.3994 14.0296C60.3688 14.0543 60.3334 14.0727 60.2949 14.0851C60.2337 14.1035 60.1706 14.1174 60.106 14.1266C60.031 14.1343 59.9587 14.1636 59.8972 14.2097C59.8544 14.2544 59.8313 14.316 59.8344 14.3775C59.8297 14.4422 59.8544 14.5068 59.902 14.5515C59.9557 14.5946 60.0233 14.6161 60.0909 14.6115C60.1845 14.6177 60.2749 14.5792 60.338 14.5099V14.5084Z" fill="white"/>
<path d="M62.3354 14.4867L62.4519 14.8192C62.3982 14.8623 62.3354 14.8931 62.2694 14.9131C62.1894 14.9362 62.105 14.947 62.022 14.947C61.8609 14.9593 61.7013 14.9039 61.5829 14.7931C61.4723 14.6653 61.4172 14.499 61.4294 14.3312V13.4846H61.1621V13.1243H61.4324V12.7764L61.8792 12.7041V13.1243H62.3843V13.4799H61.8792V14.2943C61.8731 14.3636 61.893 14.4313 61.9345 14.4867C61.9744 14.5267 62.0314 14.5498 62.088 14.5467C62.1617 14.5483 62.2356 14.5252 62.2955 14.4821L62.3354 14.4867Z" fill="white"/>
<path d="M62.773 12.8429C62.6701 12.7382 62.6701 12.5704 62.773 12.4657C62.8251 12.4149 62.8972 12.3888 62.9696 12.3918C63.0185 12.3918 63.0677 12.4026 63.1124 12.4257C63.1523 12.4473 63.1861 12.4796 63.2106 12.5181C63.255 12.6028 63.255 12.7043 63.2106 12.789C63.1874 12.829 63.1536 12.8614 63.1124 12.8829C63.0677 12.906 63.0185 12.9183 62.9696 12.9168C62.8972 12.9199 62.8251 12.8937 62.773 12.8429ZM62.7469 14.9134V13.1246H63.1938V14.9072L62.7469 14.9134Z" fill="white"/>
<path d="M64.0228 14.8399C63.8909 14.7676 63.785 14.6583 63.7159 14.5244C63.5701 14.2057 63.5701 13.8393 63.7159 13.5207C63.7834 13.3867 63.8909 13.2759 64.0228 13.2036C64.3133 13.0604 64.654 13.0604 64.9442 13.2036C65.0764 13.2759 65.1839 13.3867 65.2514 13.5207C65.3972 13.8393 65.3972 14.2057 65.2514 14.5244C65.1823 14.6583 65.0764 14.7676 64.9442 14.8399C64.654 14.9846 64.3133 14.9846 64.0228 14.8399ZM64.895 14.0225C64.9075 13.8763 64.8689 13.73 64.7891 13.6084C64.7139 13.5176 64.5987 13.4699 64.4822 13.476C64.2056 13.476 64.0691 13.6592 64.0691 14.0225C64.0691 14.3858 64.2056 14.5675 64.4822 14.5675C64.7586 14.5675 64.895 14.3858 64.895 14.0225Z" fill="white"/>
<path d="M65.7705 14.9134V13.1246H66.2006V13.3863L66.2344 13.394C66.4294 13.0877 66.8347 12.9984 67.1401 13.1939C67.1709 13.2124 67.1986 13.2355 67.2247 13.2586C67.3289 13.3987 67.3813 13.5726 67.3691 13.7481V14.9072H66.9222V13.8035C66.9299 13.7127 66.9052 13.6203 66.8515 13.5464C66.79 13.4895 66.7073 13.4602 66.6243 13.4679C66.5076 13.4587 66.394 13.5049 66.3171 13.5926C66.2357 13.7065 66.1974 13.8451 66.2096 13.9836V14.9072L65.7705 14.9134Z" fill="white"/>
<path d="M4.2548 4.35023C3.70817 4.35023 3.22144 4.97828 3.59454 5.5525L6.66549 10.2384C6.91425 10.6263 7.34416 10.8588 7.8048 10.8542C8.2025 10.8588 8.58023 10.6848 8.8351 10.3785L8.89654 10.3046L16.0641 1.84563C16.342 1.51158 16.2975 1.01436 15.9643 0.735724C15.6649 0.484804 15.2288 0.4925 14.9386 0.751116L7.78639 7.22428L4.74922 4.54418C4.61409 4.42103 4.43753 4.35175 4.2548 4.35023Z" fill="white"/>
<path d="M2.3247 0.0015384C1.04105 0.00307787 0.00153528 1.04525 0 2.33218V13.2619C0.00460637 14.5473 1.04259 15.5864 2.3247 15.5879H13.2266C14.5102 15.5879 15.5497 14.5442 15.5513 13.2573V5.45407L14.1924 7.05812V13.2603C14.1924 13.7945 13.7594 14.2286 13.2266 14.2286H2.3247C1.7919 14.2286 1.36043 13.7945 1.35889 13.2603V2.33064C1.35889 1.79647 1.7919 1.3639 2.3247 1.36236H11.5022L13.007 0H2.3247V0.0015384Z" fill="white"/>
</svg>
