<svg width="48" height="48" viewBox="0 0 48 48" fill="none" xmlns="http://www.w3.org/2000/svg">
<path d="M18.5927 31.8075L24.0002 28.527L29.4077 31.8075L27.9732 25.6575L32.7692 21.523L26.4577 20.9925L24.0002 15.1925L21.5427 20.9925L15.2312 21.523L20.0272 25.6575L18.5927 31.8075ZM24.0002 45.2155L17.7232 39H9.00017V30.277L2.78467 24L9.00017 17.723V9.00005H17.7232L24.0002 2.78455L30.2772 9.00005H39.0002V17.723L45.2157 24L39.0002 30.277V39H30.2772L24.0002 45.2155ZM24.0002 41L29.0002 36H36.0002V29L41.0002 24L36.0002 19V12H29.0002L24.0002 7.00005L19.0002 12H12.0002V19L7.00017 24L12.0002 29V36H19.0002L24.0002 41Z" fill="white"/>
</svg>
