<svg width="48" height="48" viewBox="0 0 48 48" fill="none" xmlns="http://www.w3.org/2000/svg">
<path d="M30.8075 31.5V26.0305L28.596 22C28.132 22.1153 27.75 22.3705 27.45 22.7655C27.15 23.1601 27 23.6101 27 24.1155V35.0845L31.7655 43H28.269L24 35.946V24.1155C24 23.0691 24.282 22.1191 24.846 21.2655C25.4103 20.4115 26.1642 19.7716 27.1075 19.346L24.0575 13.8C23.4422 12.623 23.1667 11.3838 23.231 10.0825C23.295 8.78146 23.7885 7.66929 24.7115 6.74596L27.727 3.73096L40.9885 19.4115L43 43H40L38.05 20.5885L27.5345 8.14996L26.85 8.85396C26.4397 9.26396 26.1998 9.74013 26.1305 10.2825C26.0615 10.8248 26.159 11.3473 26.423 11.85L33.8075 25.2305V31.5H30.8075ZM14.1925 31.5V25.2305L21.577 11.85C21.841 11.3473 21.9385 10.8248 21.8695 10.2825C21.8002 9.74013 21.5603 9.26396 21.15 8.85396L20.4655 8.14996L9.95 20.5885L8 43H5L7.0115 19.4115L20.273 3.73096L23.2885 6.74596C24.2115 7.66929 24.705 8.78146 24.769 10.0825C24.8333 11.3838 24.5578 12.623 23.9425 13.8L20.873 19.346C21.8167 19.7716 22.5737 20.4115 23.144 21.2655C23.7147 22.1191 24 23.0691 24 24.1155V35.946L19.731 43H16.2345L21 35.0845V24.1155C21 23.6101 20.85 23.1601 20.55 22.7655C20.25 22.3705 19.868 22.1153 19.404 22L17.1925 26.0305V31.5H14.1925Z" fill="white"/>
</svg>
