<svg width="48" height="48" viewBox="0 0 48 48" fill="none" xmlns="http://www.w3.org/2000/svg">
<path d="M17.923 44.119C16.3897 44.119 15.0307 43.687 13.846 42.823C12.6617 41.959 11.7938 40.8142 11.2425 39.3885C10.7732 40.0755 10.1558 40.6043 9.3905 40.975C8.62517 41.3453 7.82833 41.5305 7 41.5305C5.454 41.5305 4.15083 40.9958 3.0905 39.9265C2.03017 38.8572 1.5 37.5585 1.5 36.0305C1.5 34.6998 1.9475 33.4948 2.8425 32.4155C3.73717 31.3358 4.86917 30.7512 6.2385 30.6615C5.66917 30.0205 5.22433 29.2962 4.904 28.4885C4.58333 27.6808 4.423 26.8347 4.423 25.95C4.423 24.7287 4.7295 23.5835 5.3425 22.5145C5.95517 21.4458 6.81417 20.5705 7.9195 19.8885C8.04817 20.3358 8.222 20.8143 8.441 21.324C8.66 21.8337 8.9015 22.2808 9.1655 22.6655C8.62183 23.0835 8.20383 23.5838 7.9115 24.1665C7.61917 24.7495 7.473 25.3607 7.473 26C7.473 27.9693 8.23967 29.2123 9.773 29.729C11.3063 30.2457 12.8205 30.6502 14.3155 30.9425L15.0155 32.1385C14.6488 33.2052 14.3417 34.1103 14.094 34.854C13.8467 35.5973 13.723 36.2755 13.723 36.8885C13.723 38.0115 14.128 38.9942 14.938 39.8365C15.7477 40.6788 16.7363 41.1 17.904 41.1C19.2477 41.1 20.3553 40.5493 21.227 39.448C22.0987 38.3467 22.814 37.0455 23.373 35.5445C23.932 34.0432 24.3628 32.5123 24.6655 30.952C24.9682 29.3917 25.2157 28.1563 25.408 27.246L28.346 28.046C28.059 29.4563 27.7117 31.0833 27.304 32.927C26.8963 34.7707 26.32 36.5225 25.575 38.1825C24.83 39.8428 23.8498 41.2473 22.6345 42.396C21.4192 43.5447 19.8487 44.119 17.923 44.119ZM7 38.531C7.695 38.531 8.2855 38.288 8.7715 37.802C9.25717 37.316 9.5 36.7255 9.5 36.0305C9.5 35.3358 9.25717 34.7455 8.7715 34.2595C8.2855 33.7735 7.695 33.5305 7 33.5305C6.30533 33.5305 5.715 33.7735 5.229 34.2595C4.743 34.7455 4.5 35.3358 4.5 36.0305C4.5 36.7255 4.743 37.316 5.229 37.802C5.715 38.288 6.30533 38.531 7 38.531ZM20.181 30.4575C18.7373 29.1678 17.4225 27.9633 16.2365 26.844C15.0505 25.725 14.0285 24.6328 13.1705 23.5675C12.3122 22.5022 11.6525 21.4367 11.1915 20.371C10.7305 19.3057 10.5 18.1987 10.5 17.05C10.5 15.024 11.1935 13.3175 12.5805 11.9305C13.9675 10.5435 15.674 9.85 17.7 9.85C17.9487 9.85 18.1712 9.86483 18.3675 9.8945C18.5635 9.92383 18.7602 9.95766 18.9575 9.996C18.8115 9.67566 18.6988 9.35083 18.6195 9.0215C18.5398 8.6925 18.5 8.34683 18.5 7.9845C18.5 6.45683 19.0345 5.15833 20.1035 4.089C21.1725 3.01933 22.4705 2.4845 23.9975 2.4845C25.5248 2.4845 26.8237 3.01933 27.894 4.089C28.9647 5.15833 29.5 6.45683 29.5 7.9845C29.5 8.35116 29.4602 8.69283 29.3805 9.0095C29.3012 9.32616 29.1885 9.64483 29.0425 9.9655C29.2398 9.92716 29.4365 9.89833 29.6325 9.879C29.8288 9.85966 30.0513 9.85 30.3 9.85C32.0563 9.85 33.5672 10.3858 34.8325 11.4575C36.0978 12.5295 36.9023 13.8745 37.246 15.4925C36.789 15.4182 36.2748 15.381 35.7035 15.381C35.1318 15.381 34.6063 15.4078 34.127 15.4615C33.8297 14.6948 33.3437 14.068 32.669 13.581C31.9947 13.0937 31.2078 12.85 30.3085 12.85C29.0978 12.85 28.145 13.182 27.45 13.846C26.755 14.5103 25.828 15.5117 24.669 16.85H23.281C22.0887 15.4577 21.145 14.443 20.45 13.806C19.755 13.1687 18.8383 12.85 17.7 12.85C16.4893 12.85 15.4867 13.2473 14.692 14.042C13.8973 14.8367 13.5 15.8393 13.5 17.05C13.5 17.8207 13.707 18.6165 14.121 19.4375C14.5353 20.2588 15.1235 21.1278 15.8855 22.0445C16.6478 22.9612 17.5722 23.9362 18.6585 24.9695C19.7452 26.0028 20.9653 27.1195 22.319 28.3195L20.181 30.4575ZM24 10.4845C24.695 10.4845 25.2853 10.2417 25.771 9.756C26.257 9.27 26.5 8.6795 26.5 7.9845C26.5 7.28983 26.257 6.6995 25.771 6.2135C25.2853 5.7275 24.695 5.4845 24 5.4845C23.305 5.4845 22.7147 5.7275 22.229 6.2135C21.743 6.6995 21.5 7.28983 21.5 7.9845C21.5 8.6795 21.743 9.27 22.229 9.756C22.7147 10.2417 23.305 10.4845 24 10.4845ZM29.9885 44.1385C29.3845 44.1385 28.7875 44.0632 28.1975 43.9125C27.6072 43.7615 27.0375 43.5227 26.4885 43.196C26.7645 42.843 27.0405 42.4268 27.3165 41.9475C27.5925 41.4682 27.8433 41.0267 28.069 40.623C28.4007 40.8013 28.7322 40.9287 29.0635 41.005C29.3948 41.0813 29.7262 41.1195 30.0575 41.1195C31.2395 41.1195 32.2402 40.6988 33.0595 39.8575C33.8788 39.0165 34.2885 38.0165 34.2885 36.8575C34.2885 36.2282 34.1648 35.549 33.9175 34.82C33.6698 34.0913 33.3627 33.1937 32.996 32.127L33.7155 30.931C35.2435 30.6387 36.7658 30.2308 38.2825 29.7075C39.7992 29.1845 40.5575 27.9383 40.5575 25.969C40.5575 24.4947 40.0275 23.4127 38.9675 22.723C37.9072 22.0333 36.7295 21.6885 35.4345 21.6885C34.0625 21.6885 32.4618 21.9358 30.6325 22.4305C28.8032 22.9255 26.677 23.5768 24.254 24.3845L23.454 21.446C25.9 20.664 28.09 20.0025 30.024 19.4615C31.9577 18.9205 33.733 18.65 35.35 18.65C37.509 18.65 39.4167 19.2885 41.073 20.5655C42.7293 21.8425 43.5575 23.6437 43.5575 25.969C43.5575 26.8483 43.4005 27.6835 43.0865 28.4745C42.7725 29.2658 42.3308 29.9948 41.7615 30.6615C43.1308 30.7642 44.2628 31.3488 45.1575 32.4155C46.0525 33.4822 46.5 34.6872 46.5 36.0305C46.5 37.5435 45.9698 38.8385 44.9095 39.9155C43.8492 40.9922 42.546 41.5305 41 41.5305C40.1717 41.5305 39.3748 41.3453 38.6095 40.975C37.8442 40.6043 37.2268 40.0755 36.7575 39.3885C36.2062 40.8142 35.3318 41.9622 34.1345 42.8325C32.9372 43.7032 31.5552 44.1385 29.9885 44.1385ZM41.05 38.531C41.7447 38.531 42.3267 38.288 42.796 37.802C43.2653 37.316 43.5 36.7255 43.5 36.0305C43.5 35.3358 43.257 34.7372 42.771 34.2345C42.285 33.7318 41.6947 33.4805 41 33.4805C40.305 33.4805 39.7145 33.7235 39.2285 34.2095C38.7428 34.6955 38.5 35.2858 38.5 35.9805C38.5 36.6755 38.7512 37.2743 39.2535 37.777C39.7562 38.2797 40.355 38.531 41.05 38.531Z" fill="white"/>
</svg>
