<svg width="48" height="48" viewBox="0 0 48 48" fill="none" xmlns="http://www.w3.org/2000/svg">
<path d="M10.5 43.5V4.5H13.5V8.5H41.269L37.4615 18L41.269 27.5H13.5V43.5H10.5ZM25 21.5C25.9717 21.5 26.798 21.1597 27.479 20.479C28.1597 19.798 28.5 18.9717 28.5 18C28.5 17.0283 28.1597 16.202 27.479 15.521C26.798 14.8403 25.9717 14.5 25 14.5C24.0283 14.5 23.202 14.8403 22.521 15.521C21.8403 16.202 21.5 17.0283 21.5 18C21.5 18.9717 21.8403 19.798 22.521 20.479C23.202 21.1597 24.0283 21.5 25 21.5ZM13.5 24.5H36.831L34.2385 18L36.831 11.5H13.5V24.5Z" fill="white"/>
</svg>
