<svg width="140" height="16" viewBox="0 0 140 16" fill="none" xmlns="http://www.w3.org/2000/svg">
<path d="M6.03999 15L-7.3351e-06 0.999999H3.49999L8.77999 13.4H6.71999L12.08 0.999999H15.3L9.23999 15H6.03999ZM20.7881 15.16C19.5615 15.16 18.4815 14.92 17.5481 14.44C16.6281 13.96 15.9148 13.3067 15.4081 12.48C14.9015 11.64 14.6481 10.6867 14.6481 9.62C14.6481 8.54 14.8948 7.58667 15.3881 6.76C15.8948 5.92 16.5815 5.26667 17.4481 4.8C18.3148 4.32 19.2948 4.08 20.3881 4.08C21.4415 4.08 22.3881 4.30667 23.2281 4.76C24.0815 5.2 24.7548 5.84 25.2481 6.68C25.7415 7.50667 25.9881 8.5 25.9881 9.66C25.9881 9.78 25.9815 9.92 25.9681 10.08C25.9548 10.2267 25.9415 10.3667 25.9281 10.5H17.1881V8.68H24.2881L23.0881 9.22C23.0881 8.66 22.9748 8.17333 22.7481 7.76C22.5215 7.34667 22.2081 7.02667 21.8081 6.8C21.4081 6.56 20.9415 6.44 20.4081 6.44C19.8748 6.44 19.4015 6.56 18.9881 6.8C18.5881 7.02667 18.2748 7.35333 18.0481 7.78C17.8215 8.19333 17.7081 8.68667 17.7081 9.26V9.74C17.7081 10.3267 17.8348 10.8467 18.0881 11.3C18.3548 11.74 18.7215 12.08 19.1881 12.32C19.6681 12.5467 20.2281 12.66 20.8681 12.66C21.4415 12.66 21.9415 12.5733 22.3681 12.4C22.8081 12.2267 23.2081 11.9667 23.5681 11.62L25.2281 13.42C24.7348 13.98 24.1148 14.4133 23.3681 14.72C22.6215 15.0133 21.7615 15.16 20.7881 15.16ZM34.6053 4.08C35.4586 4.08 36.2186 4.25333 36.8853 4.6C37.5653 4.93333 38.0986 5.45333 38.4853 6.16C38.872 6.85333 39.0653 7.74667 39.0653 8.84V15H35.9453V9.32C35.9453 8.45333 35.752 7.81333 35.3653 7.4C34.992 6.98667 34.4586 6.78 33.7653 6.78C33.272 6.78 32.8253 6.88667 32.4253 7.1C32.0386 7.3 31.732 7.61333 31.5053 8.04C31.292 8.46667 31.1853 9.01333 31.1853 9.68V15H28.0653V4.24H31.0453V7.22L30.4853 6.32C30.872 5.6 31.4253 5.04667 32.1453 4.66C32.8653 4.27333 33.6853 4.08 34.6053 4.08ZM46.2934 15.16C45.0268 15.16 44.0401 14.84 43.3334 14.2C42.6268 13.5467 42.2734 12.58 42.2734 11.3V1.86H45.3934V11.26C45.3934 11.7133 45.5134 12.0667 45.7534 12.32C45.9934 12.56 46.3201 12.68 46.7334 12.68C47.2268 12.68 47.6468 12.5467 47.9934 12.28L48.8334 14.48C48.5134 14.7067 48.1268 14.88 47.6734 15C47.2334 15.1067 46.7734 15.16 46.2934 15.16ZM40.6134 6.88V4.48H48.0734V6.88H40.6134ZM55.1248 15.16C54.2315 15.16 53.4315 14.9867 52.7248 14.64C52.0315 14.2933 51.4915 13.7667 51.1048 13.06C50.7182 12.34 50.5248 11.4267 50.5248 10.32V4.24H53.6448V9.86C53.6448 10.7533 53.8315 11.4133 54.2048 11.84C54.5915 12.2533 55.1315 12.46 55.8248 12.46C56.3048 12.46 56.7315 12.36 57.1048 12.16C57.4782 11.9467 57.7715 11.6267 57.9848 11.2C58.1982 10.76 58.3048 10.2133 58.3048 9.56V4.24H61.4248V15H58.4648V12.04L59.0048 12.9C58.6448 13.6467 58.1115 14.2133 57.4048 14.6C56.7115 14.9733 55.9515 15.16 55.1248 15.16ZM64.3153 15V4.24H67.2953V7.28L66.8753 6.4C67.1953 5.64 67.7086 5.06667 68.4153 4.68C69.122 4.28 69.982 4.08 70.9953 4.08V6.96C70.862 6.94667 70.742 6.94 70.6353 6.94C70.5286 6.92667 70.4153 6.92 70.2953 6.92C69.442 6.92 68.7486 7.16667 68.2153 7.66C67.6953 8.14 67.4353 8.89333 67.4353 9.92V15H64.3153ZM78.1123 15.16C76.8857 15.16 75.8057 14.92 74.8723 14.44C73.9523 13.96 73.239 13.3067 72.7323 12.48C72.2257 11.64 71.9723 10.6867 71.9723 9.62C71.9723 8.54 72.219 7.58667 72.7123 6.76C73.219 5.92 73.9057 5.26667 74.7723 4.8C75.639 4.32 76.619 4.08 77.7123 4.08C78.7657 4.08 79.7123 4.30667 80.5523 4.76C81.4057 5.2 82.079 5.84 82.5723 6.68C83.0657 7.50667 83.3123 8.5 83.3123 9.66C83.3123 9.78 83.3057 9.92 83.2923 10.08C83.279 10.2267 83.2657 10.3667 83.2523 10.5H74.5123V8.68H81.6123L80.4123 9.22C80.4123 8.66 80.299 8.17333 80.0723 7.76C79.8457 7.34667 79.5323 7.02667 79.1323 6.8C78.7323 6.56 78.2657 6.44 77.7323 6.44C77.199 6.44 76.7257 6.56 76.3123 6.8C75.9123 7.02667 75.599 7.35333 75.3723 7.78C75.1457 8.19333 75.0323 8.68667 75.0323 9.26V9.74C75.0323 10.3267 75.159 10.8467 75.4123 11.3C75.679 11.74 76.0457 12.08 76.5123 12.32C76.9923 12.5467 77.5523 12.66 78.1923 12.66C78.7657 12.66 79.2657 12.5733 79.6923 12.4C80.1323 12.2267 80.5323 11.9667 80.8923 11.62L82.5523 13.42C82.059 13.98 81.439 14.4133 80.6923 14.72C79.9457 15.0133 79.0857 15.16 78.1123 15.16ZM94.6336 15L90.0536 0.999999H93.4136L97.3936 13.4H95.7136L99.8736 0.999999H102.874L106.874 13.4H105.254L109.334 0.999999H112.434L107.854 15H104.374L100.834 4.12H101.754L98.1136 15H94.6336ZM118.342 15.16C117.195 15.16 116.175 14.92 115.282 14.44C114.402 13.96 113.702 13.3067 113.182 12.48C112.675 11.64 112.422 10.6867 112.422 9.62C112.422 8.54 112.675 7.58667 113.182 6.76C113.702 5.92 114.402 5.26667 115.282 4.8C116.175 4.32 117.195 4.08 118.342 4.08C119.475 4.08 120.488 4.32 121.382 4.8C122.275 5.26667 122.975 5.91333 123.482 6.74C123.988 7.56667 124.242 8.52667 124.242 9.62C124.242 10.6867 123.988 11.64 123.482 12.48C122.975 13.3067 122.275 13.96 121.382 14.44C120.488 14.92 119.475 15.16 118.342 15.16ZM118.342 12.6C118.862 12.6 119.328 12.48 119.742 12.24C120.155 12 120.482 11.66 120.722 11.22C120.962 10.7667 121.082 10.2333 121.082 9.62C121.082 8.99333 120.962 8.46 120.722 8.02C120.482 7.58 120.155 7.24 119.742 7C119.328 6.76 118.862 6.64 118.342 6.64C117.822 6.64 117.355 6.76 116.942 7C116.528 7.24 116.195 7.58 115.942 8.02C115.702 8.46 115.582 8.99333 115.582 9.62C115.582 10.2333 115.702 10.7667 115.942 11.22C116.195 11.66 116.528 12 116.942 12.24C117.355 12.48 117.822 12.6 118.342 12.6ZM126.327 15V0.159999H129.447V15H126.327ZM132.723 15V4C132.723 2.78667 133.083 1.82 133.803 1.1C134.523 0.366666 135.549 -1.19209e-06 136.883 -1.19209e-06C137.336 -1.19209e-06 137.769 0.0466657 138.183 0.139999C138.609 0.233332 138.969 0.379999 139.263 0.58L138.443 2.84C138.269 2.72 138.076 2.62667 137.863 2.56C137.649 2.49333 137.423 2.46 137.183 2.46C136.729 2.46 136.376 2.59333 136.123 2.86C135.883 3.11333 135.763 3.5 135.763 4.02V5.02L135.843 6.36V15H132.723ZM131.063 6.88V4.48H138.523V6.88H131.063Z" fill="black"/>
</svg>
