<svg width="148" height="38" viewBox="0 0 148 38" fill="none" xmlns="http://www.w3.org/2000/svg">
<path d="M39.7378 9.98291H44.4959L47.9031 22.4H47.9929L51.3536 9.98291H55.9885L50.3953 26.343H45.3677L39.7378 9.98291Z" fill="#0560FB"/>
<path d="M60.0982 25.6421C58.9068 24.9609 57.9454 23.9393 57.3331 22.7073C56.661 21.2983 56.3316 19.7524 56.3749 18.1898C56.3349 16.6239 56.671 15.0748 57.3498 13.6658C57.9552 12.4371 58.9034 11.4087 60.0781 10.7076C61.3392 9.98645 62.7698 9.62583 64.2206 9.66256C65.6615 9.61918 67.0858 9.96638 68.3464 10.6642C69.5014 11.3353 70.4363 12.3269 71.0387 13.5222C71.694 14.8644 72.0203 16.3435 71.9868 17.8393V19.2283H58.5477V16.4069H69.8605L67.7475 19.0446V17.3218C67.7711 16.4971 67.6213 15.6791 67.3054 14.9179C67.0524 14.3202 66.6264 13.816 66.084 13.4621C65.5347 13.1316 64.903 12.9613 64.2638 12.9746C62.9295 12.9346 61.7087 13.7192 61.1865 14.9512C60.8666 15.6991 60.7138 16.5071 60.7403 17.3218V19.0613C60.7173 19.8526 60.87 20.6405 61.1865 21.3651C61.4591 21.9727 61.9046 22.4836 62.4706 22.8341C63.0759 23.1881 63.7681 23.365 64.4667 23.345C65.0091 23.3583 65.5451 23.2615 66.0477 23.0579C66.457 22.8876 66.8293 22.6405 67.1423 22.3233C67.3982 22.0695 67.5982 21.7624 67.721 21.4252L67.7509 21.3317H71.8237L71.777 21.502C71.6404 22.143 71.4012 22.754 71.0652 23.315C70.6859 23.9493 70.2 24.5136 69.6277 24.9843C68.9723 25.5219 68.227 25.9359 67.4247 26.203C66.4431 26.5268 65.412 26.6838 64.3773 26.6637C62.8862 26.7072 61.4089 26.3533 60.0982 25.6421Z" fill="#0560FB"/>
<path d="M74.2529 9.9825H78.6911V12.8372H78.781C78.9706 11.939 79.4364 11.121 80.1119 10.5C80.7776 9.93241 81.6295 9.63195 82.501 9.66196C82.7339 9.66196 82.9667 9.67532 83.1996 9.7087C83.3962 9.73212 83.5858 9.77214 83.7754 9.82894V13.7654C83.5524 13.6719 83.316 13.6085 83.0768 13.5751C82.7742 13.5284 82.471 13.505 82.165 13.505C81.516 13.4883 80.8739 13.6352 80.2952 13.9323C79.7793 14.2161 79.3666 14.6535 79.1107 15.1844C78.8214 15.8121 78.6813 16.4965 78.7015 17.1877V26.3393H74.2529V9.9825Z" fill="#0560FB"/>
<path d="M85.5766 9.98302H90.0148V12.654H90.1047C90.5076 11.7492 91.163 10.9813 91.9913 10.4438C92.9198 9.87949 93.9913 9.59904 95.0761 9.63576C96.8727 9.63576 98.2601 10.1767 99.2353 11.2618C100.21 12.3469 100.699 13.8494 100.702 15.7692V26.3231H96.264V16.7107C96.264 15.6423 96.011 14.8143 95.5118 14.2233C95.0127 13.6323 94.2605 13.3385 93.2691 13.3385C92.6639 13.3252 92.0679 13.4854 91.5492 13.7993C91.0598 14.1064 90.6673 14.5438 90.4177 15.0646C90.1382 15.649 90.0016 16.2933 90.0148 16.9411V26.3365H85.5766V9.98302Z" fill="#0560FB"/>
<path d="M106.704 25.658C105.499 24.9836 104.524 23.9619 103.902 22.7299C103.204 21.3109 102.861 19.7416 102.904 18.159V18.129C102.857 16.5564 103.2 14.9972 103.902 13.5915C104.541 12.3628 105.519 11.3478 106.724 10.6701C108.025 9.96559 109.485 9.61168 110.963 9.64841C112.447 9.60832 113.918 9.95223 115.228 10.65C116.433 11.3212 117.415 12.3328 118.047 13.5615C118.749 14.9738 119.091 16.5397 119.045 18.1157V18.1457C119.088 19.7316 118.745 21.3008 118.047 22.7232C117.431 23.9552 116.463 24.9769 115.268 25.658C112.576 27.0102 109.402 27.0102 106.71 25.658H106.704ZM112.876 22.5896C113.438 22.1523 113.864 21.5579 114.1 20.8835C114.41 20.0087 114.556 19.0872 114.533 18.159V18.129C114.556 17.2108 114.406 16.2993 114.094 15.4379C113.851 14.7602 113.422 14.1692 112.852 13.7284C112.307 13.3345 111.648 13.1275 110.976 13.1408C110.307 13.1275 109.655 13.3345 109.116 13.7352C108.55 14.1759 108.121 14.7702 107.875 15.4446C107.562 16.2993 107.416 17.2041 107.436 18.1157V18.1457C107.412 19.0739 107.559 19.9954 107.868 20.8702C108.105 21.5479 108.537 22.1423 109.106 22.5763C109.659 22.9736 110.327 23.1806 111.006 23.1639C111.675 23.184 112.334 22.9836 112.876 22.5896Z" fill="#0560FB"/>
<path d="M124.21 26.0152C123.238 25.6413 122.383 25.0136 121.741 24.1922C121.145 23.4043 120.779 22.4661 120.676 21.4845V21.3476H125.002L125.032 21.4845C125.151 22.0855 125.494 22.623 125.99 22.9802C126.609 23.3676 127.331 23.5545 128.059 23.5145C128.549 23.5245 129.037 23.4544 129.503 23.3075C129.856 23.1973 130.172 22.9936 130.422 22.7198C130.644 22.4694 130.761 22.1422 130.755 21.805V21.7849C130.768 21.3809 130.595 20.9937 130.285 20.7332C129.786 20.3893 129.217 20.1623 128.622 20.0655L125.856 19.4712C124.276 19.144 123.085 18.5863 122.283 17.8018C121.484 17.0104 121.049 15.922 121.082 14.7968V14.7735C121.059 13.7985 121.355 12.8469 121.927 12.059C122.543 11.2543 123.368 10.64 124.313 10.2794C125.461 9.8387 126.685 9.62499 127.913 9.64836C129.167 9.61498 130.415 9.85206 131.573 10.3429C132.504 10.7402 133.31 11.3846 133.902 12.2092C134.438 12.9738 134.737 13.8853 134.76 14.8202V14.9705H130.661V14.8503C130.591 14.276 130.299 13.7518 129.846 13.3945C129.29 12.9738 128.605 12.7668 127.909 12.8069C127.457 12.7969 127.005 12.8703 126.579 13.0206C126.243 13.1374 125.943 13.3411 125.713 13.6149C125.507 13.8753 125.401 14.1992 125.411 14.5297C125.404 14.937 125.584 15.3244 125.897 15.5848C126.406 15.942 126.995 16.1724 127.613 16.2525L130.382 16.8468C132.092 17.2041 133.32 17.7383 134.069 18.4495C134.827 19.2041 135.233 20.2458 135.183 21.3175V21.3342C135.203 22.3426 134.88 23.3241 134.272 24.1255C133.609 24.9568 132.744 25.5945 131.756 25.9785C130.578 26.4426 129.32 26.6696 128.056 26.6463C126.745 26.6896 125.437 26.476 124.21 26.0152Z" fill="#0560FB"/>
<path d="M139.827 25.5288C138.956 24.7643 138.52 23.5089 138.52 21.7593V13.3389H136.257V9.98337H138.52V5.97681H143.005V9.98337H146V13.3389H143.005V21.2719C143.005 22.0365 143.175 22.5707 143.514 22.8679C143.947 23.195 144.486 23.3553 145.028 23.3152C145.205 23.3152 145.384 23.3086 145.561 23.2919C145.71 23.2919 145.854 23.2618 145.986 23.2418V26.5038C145.74 26.5438 145.441 26.5839 145.081 26.6173C144.669 26.6574 144.256 26.6774 143.84 26.6741C142.037 26.6741 140.7 26.2935 139.827 25.5288Z" fill="#0560FB"/>
<path d="M67.6278 32.6291H65.1487C65.1487 32.8996 65.2519 33.1633 65.4346 33.3636C65.6179 33.5239 65.8577 33.6074 66.1003 33.594C66.2865 33.6007 66.4727 33.5573 66.6392 33.4705C66.7822 33.3803 66.8986 33.2468 66.9718 33.0932H67.045L67.6877 33.5072C67.5678 33.781 67.3678 34.0114 67.1182 34.1749C66.8122 34.3586 66.4594 34.4454 66.1038 34.4287C65.7476 34.4387 65.3914 34.3586 65.072 34.1984C64.7862 34.0515 64.5533 33.8177 64.4069 33.5306C64.2403 33.19 64.1602 32.8127 64.1706 32.4321C64.1573 32.0448 64.2438 31.6642 64.4202 31.3203C64.5729 31.0365 64.8029 30.8061 65.0853 30.6525C65.3816 30.5023 65.7078 30.4255 66.0369 30.4321C66.4963 30.3988 66.9488 30.5557 67.2883 30.8662C67.6007 31.2135 67.7574 31.6742 67.724 32.1417C67.724 32.2986 67.7206 32.4588 67.7038 32.6157L67.6278 32.6291ZM66.7955 32.0014C66.8058 31.771 66.7326 31.5407 66.5897 31.3603C66.4433 31.2168 66.2398 31.1433 66.0335 31.1567C65.5447 31.1567 65.2553 31.4405 65.1718 32.0014H66.7955Z" fill="#0560FB"/>
<path d="M68.5625 34.3468V30.4671H69.4905V30.9846H69.5637C69.9568 30.3936 70.7383 30.2067 71.3574 30.5539C71.5372 30.6741 71.6732 30.8511 71.743 31.0581H71.8162C71.9194 30.8477 72.0796 30.6707 72.2756 30.5439C72.4917 30.427 72.735 30.3703 72.9776 30.3803C73.7765 30.3803 74.1753 30.8244 74.1753 31.7158V34.3168H73.207V31.836C73.2237 31.6624 73.1776 31.4888 73.0744 31.3452C72.9609 31.235 72.8047 31.1816 72.6485 31.1949C72.1194 31.1949 71.8531 31.5522 71.8531 32.2634V34.3168H70.8847V31.836C70.898 31.6624 70.8513 31.4888 70.7516 31.3452C70.6352 31.235 70.479 31.1816 70.3228 31.1949C70.0997 31.1849 69.8864 31.2751 69.74 31.4454C69.5804 31.6791 69.5072 31.9595 69.5308 32.2433V34.3168L68.5625 34.3468Z" fill="#0560FB"/>
<path d="M75.2285 35.9121V30.4665H76.1968V30.9707H76.27C76.376 30.7804 76.5328 30.6268 76.7253 30.5266C76.9317 30.4264 77.1617 30.3731 77.3911 30.3797C77.677 30.3731 77.96 30.4498 78.2032 30.6001C78.4459 30.7637 78.6355 30.9941 78.7456 31.2679C78.8816 31.6218 78.9485 32.0024 78.9381 32.383C78.9485 32.7636 78.8782 33.1442 78.7317 33.4948C78.6153 33.7686 78.4159 34.0023 78.1663 34.1626C77.9133 34.3128 77.6239 34.3896 77.3277 34.3863C77.115 34.3896 76.9017 34.3496 76.7057 34.2627C76.5259 34.1793 76.3732 34.049 76.2631 33.8855L76.1899 33.9022V35.8787L75.2285 35.9121ZM77.7202 33.3112C78.0234 32.7503 78.0234 32.0759 77.7202 31.5149C77.5605 31.3146 77.311 31.2078 77.055 31.2278C76.8055 31.2178 76.5691 31.328 76.4129 31.5216C76.0965 32.0725 76.0965 32.7503 76.4129 33.3012C76.5691 33.4948 76.8055 33.605 77.055 33.595C77.311 33.615 77.5576 33.5082 77.7202 33.3112Z" fill="#0560FB"/>
<path d="M80.5317 34.1866C80.2452 34.0297 80.0158 33.7926 79.866 33.5021C79.5501 32.811 79.5501 32.0163 79.866 31.3252C80.0124 31.0347 80.2452 30.7944 80.5317 30.6374C81.1606 30.3269 81.8989 30.3269 82.5277 30.6374C82.8142 30.7944 83.0471 31.0347 83.1935 31.3252C83.5128 32.0163 83.5128 32.811 83.1935 33.5021C83.0436 33.7926 82.8142 34.0297 82.5277 34.1866C81.8989 34.5004 81.1606 34.5004 80.5317 34.1866ZM82.4211 32.4136C82.4482 32.0965 82.3646 31.7793 82.1917 31.5155C82.0286 31.3185 81.779 31.215 81.5266 31.2284C80.9277 31.2284 80.628 31.6257 80.628 32.4136C80.628 33.2016 80.9277 33.5956 81.5266 33.5956C82.1254 33.5956 82.4211 33.2016 82.4211 32.4136Z" fill="#0560FB"/>
<path d="M85.8021 34.3455H84.8038L83.8752 30.4658H84.7738L85.3392 33.0801H85.4124L86.1445 30.4658H86.9866L87.7451 33.0801H87.8183L88.3641 30.4658H89.2356L88.3174 34.3455H87.3191L86.5906 31.7112H86.5174L85.8021 34.3455Z" fill="#0560FB"/>
<path d="M93.1492 32.6291H90.6742C90.6742 32.9029 90.7768 33.1633 90.9601 33.3636C91.1428 33.5239 91.3826 33.6074 91.6258 33.594C91.812 33.6007 91.9982 33.5573 92.1647 33.4705C92.3077 33.3803 92.4241 33.2468 92.4973 33.0932H92.5705L93.2126 33.5072C93.0899 33.781 92.8933 34.0114 92.6437 34.1749C92.3377 34.3586 91.9815 34.4454 91.6258 34.4287C91.2696 34.4387 90.9134 34.3586 90.5941 34.1984C90.3082 34.0515 90.0748 33.8177 89.9284 33.5306C89.6056 32.8294 89.6056 32.0214 89.9284 31.3203C90.0817 31.0365 90.3111 30.8061 90.5941 30.6525C90.8869 30.5023 91.2131 30.4289 91.5422 30.4321C92.0016 30.3988 92.4541 30.5557 92.797 30.8662C93.106 31.2135 93.2628 31.6742 93.2293 32.1417C93.2293 32.2986 93.2259 32.4588 93.2092 32.6157L93.1492 32.6291ZM92.3111 32.0014C92.3244 31.771 92.2512 31.544 92.1083 31.3603C91.9584 31.2168 91.7555 31.14 91.5492 31.1567C91.0598 31.1567 90.7739 31.4405 90.6875 32.0014H92.3111Z" fill="#0560FB"/>
<path d="M94.0837 34.3463V30.4667H95.025V31.0409H95.0982C95.1714 30.8506 95.2982 30.687 95.4642 30.5668C95.6308 30.4634 95.8204 30.4099 96.0169 30.4166C96.1899 30.4033 96.3628 30.4433 96.5155 30.5301L96.353 31.3682H96.2798C96.2198 31.3448 96.1599 31.3247 96.0965 31.3114C96.0267 31.3047 95.9535 31.3047 95.8838 31.3114C95.644 31.298 95.4112 31.4049 95.2648 31.5952C95.1016 31.8723 95.0284 32.1928 95.0515 32.5134V34.323L94.0837 34.3463Z" fill="#0560FB"/>
<path d="M97.1624 29.855C96.9457 29.6246 96.9457 29.2674 97.1624 29.037C97.2788 28.9301 97.4316 28.87 97.5883 28.8767C97.6979 28.8767 97.8045 28.9001 97.9007 28.9502C97.9872 28.9969 98.0604 29.067 98.1106 29.1505C98.2137 29.3341 98.2137 29.5545 98.1106 29.7381C98.0604 29.8249 97.9872 29.895 97.9007 29.9418C97.8045 29.9919 97.6979 30.0153 97.5883 30.0153C97.4316 30.0219 97.2788 29.9618 97.1624 29.855ZM97.1053 34.3457V30.466H98.0737V34.3323L97.1053 34.3457Z" fill="#0560FB"/>
<path d="M99.1816 34.3459V30.4662H100.11V31.0338L100.183 31.0506C100.606 30.3861 101.484 30.1925 102.146 30.6165C102.213 30.6566 102.273 30.7067 102.329 30.7567C102.559 31.0606 102.669 31.4378 102.642 31.8185V34.3326H101.674V31.9387C101.694 31.7417 101.637 31.5413 101.521 31.3811C101.387 31.2576 101.208 31.1941 101.028 31.2108C100.782 31.1975 100.546 31.2976 100.383 31.4812C100.206 31.7283 100.123 32.0288 100.15 32.3293V34.3326L99.1816 34.3459Z" fill="#0560FB"/>
<path d="M103.729 35.7043C103.442 35.5507 103.269 35.2469 103.273 34.923C103.266 34.736 103.336 34.5558 103.466 34.4222C103.622 34.2787 103.815 34.1885 104.024 34.1618V34.0883C103.911 34.0249 103.815 33.9348 103.742 33.8246C103.685 33.721 103.655 33.6075 103.658 33.4907C103.658 33.1801 103.858 32.9731 104.261 32.863V32.7895C104.071 32.686 103.908 32.5324 103.795 32.3488C103.685 32.1551 103.628 31.9314 103.635 31.7077C103.635 31.4741 103.692 31.2436 103.812 31.04C103.934 30.8396 104.118 30.6794 104.33 30.5825C104.587 30.4691 104.866 30.4156 105.146 30.4223C105.412 30.409 105.678 30.4657 105.914 30.5893C106.034 30.4123 106.107 30.202 106.121 29.9883L106.194 29.9448L106.89 30.1152C106.873 30.2821 106.819 30.439 106.726 30.5792C106.62 30.7194 106.483 30.8363 106.327 30.9131V30.9899C106.553 31.1936 106.676 31.4874 106.66 31.7912C106.663 32.0182 106.603 32.2386 106.483 32.4322C106.35 32.6259 106.167 32.7761 105.951 32.8697C105.698 32.9831 105.422 33.0399 105.142 33.0332H104.8C104.723 33.0299 104.65 33.0533 104.593 33.1033C104.544 33.1501 104.517 33.2169 104.517 33.287C104.517 33.3638 104.55 33.4372 104.613 33.4807C104.7 33.5308 104.8 33.5574 104.9 33.5541L105.764 33.5875C106.616 33.6109 107.042 33.9815 107.042 34.6893C107.046 34.9264 106.979 35.1567 106.853 35.357C106.7 35.5741 106.487 35.7344 106.237 35.8212C105.884 35.948 105.508 36.0081 105.133 35.9948C104.647 36.0248 104.164 35.9247 103.729 35.7043ZM105.858 35.14C105.994 35.0699 106.077 34.9297 106.081 34.7761C106.091 34.6726 106.047 34.5725 105.968 34.5057C105.854 34.4389 105.728 34.4088 105.598 34.4155L104.84 34.3788H104.703C104.57 34.3688 104.44 34.4055 104.33 34.4823C104.244 34.5524 104.194 34.6626 104.201 34.7761C104.201 34.9364 104.294 35.0833 104.437 35.1534C104.657 35.2536 104.896 35.3003 105.136 35.2869C105.385 35.3037 105.635 35.2502 105.858 35.14ZM105.582 32.1885C105.695 32.0583 105.751 31.8881 105.738 31.7178C105.751 31.5475 105.695 31.3772 105.582 31.2503C105.332 31.0333 104.959 31.0333 104.71 31.2503C104.507 31.5308 104.507 31.9081 104.71 32.1885C104.959 32.4056 105.332 32.4056 105.582 32.1885Z" fill="#0560FB"/>
<path d="M109.442 29.855C109.226 29.6246 109.226 29.2674 109.442 29.037C109.559 28.9301 109.711 28.87 109.868 28.8767C109.978 28.8767 110.084 28.9001 110.181 28.9502C110.267 28.9969 110.34 29.067 110.39 29.1505C110.494 29.3341 110.494 29.5545 110.39 29.7381C110.34 29.8249 110.267 29.895 110.181 29.9418C110.084 29.9919 109.978 30.0153 109.868 30.0153C109.711 30.0219 109.559 29.9618 109.442 29.855ZM109.386 34.3457V30.466H110.353V34.3323L109.386 34.3457Z" fill="#0560FB"/>
<path d="M111.462 34.3459V30.4662H112.39V31.0338L112.464 31.0506C112.886 30.3861 113.765 30.1925 114.427 30.6165C114.493 30.6566 114.553 30.7067 114.61 30.7567C114.84 31.0606 114.949 31.4378 114.923 31.8185V34.3326H113.954V31.9387C113.974 31.7417 113.918 31.5413 113.801 31.3811C113.668 31.2576 113.488 31.1941 113.309 31.2108C113.063 31.1975 112.826 31.2976 112.663 31.4812C112.487 31.7283 112.404 32.0288 112.43 32.3293V34.3326L111.462 34.3459Z" fill="#0560FB"/>
<path d="M115.975 34.3451V30.4655H116.903V31.0331L116.976 31.0498C117.199 30.6157 117.658 30.352 118.144 30.382C118.507 30.3486 118.866 30.4822 119.122 30.7459C119.352 31.0498 119.461 31.4271 119.435 31.8077V34.3218H118.47V31.9279C118.487 31.7275 118.434 31.5305 118.314 31.3703C118.181 31.2434 118.001 31.1833 117.821 31.2C117.575 31.1867 117.338 31.2868 117.176 31.4704C116.999 31.7175 116.916 32.018 116.942 32.3185V34.3218L115.975 34.3451Z" fill="#0560FB"/>
<path d="M121.179 34.1866C120.893 34.0297 120.663 33.7926 120.513 33.5021C120.197 32.811 120.197 32.0163 120.513 31.3252C120.66 31.0347 120.893 30.7944 121.179 30.6374C121.807 30.3269 122.546 30.3269 123.175 30.6374C123.461 30.7944 123.694 31.0347 123.84 31.3252C124.157 32.0163 124.157 32.811 123.84 33.5021C123.691 33.7926 123.461 34.0297 123.175 34.1866C122.546 34.5004 121.807 34.5004 121.179 34.1866ZM123.069 32.4136C123.095 32.0965 123.012 31.7793 122.839 31.5155C122.676 31.3185 122.426 31.215 122.173 31.2284C121.578 31.2284 121.278 31.6257 121.278 32.4136C121.278 33.2016 121.578 33.5956 122.173 33.5956C122.769 33.5956 123.069 33.2016 123.069 32.4136Z" fill="#0560FB"/>
<path d="M126.987 34.3455H125.833L124.409 30.4658H125.407L126.362 33.2203H126.442L127.404 30.4658H128.401L126.987 34.3455Z" fill="#0560FB"/>
<path d="M129.265 34.282C129.088 34.1918 128.942 34.0516 128.845 33.878C128.742 33.681 128.692 33.464 128.699 33.2436C128.692 33.04 128.742 32.8396 128.845 32.666C128.959 32.4991 129.118 32.3689 129.301 32.2854C129.558 32.1719 129.827 32.0918 130.103 32.055C130.283 32.0317 130.459 31.9916 130.629 31.9315C130.722 31.9048 130.805 31.8547 130.872 31.7812C130.978 31.621 130.948 31.4106 130.805 31.2838C130.675 31.207 130.526 31.1736 130.376 31.1869C130.163 31.1869 129.956 31.2337 129.767 31.3305C129.574 31.4206 129.404 31.5509 129.261 31.7078H129.192L128.789 31.0934C128.989 30.8731 129.231 30.6994 129.504 30.5859C129.797 30.4624 130.11 30.4023 130.426 30.4056C130.825 30.3722 131.221 30.4924 131.534 30.7395C131.77 30.9866 131.89 31.3238 131.867 31.6643V33.3338C131.867 33.5074 131.94 33.5942 132.093 33.5942C132.15 33.5942 132.21 33.5842 132.263 33.5608L132.313 33.5775L132.382 34.2453C132.313 34.2853 132.24 34.3154 132.159 34.332C132.056 34.3555 131.95 34.3655 131.844 34.3655C131.654 34.3755 131.467 34.3287 131.304 34.2319C131.165 34.1318 131.068 33.9815 131.028 33.8146H130.955C130.762 34.2186 130.343 34.4589 129.9 34.4189C129.68 34.4222 129.464 34.3755 129.265 34.282ZM130.752 33.4673C130.895 33.2904 130.965 33.0633 130.951 32.8363V32.4457L130.885 32.429C130.819 32.4824 130.742 32.5224 130.659 32.5491C130.526 32.5892 130.389 32.6193 130.249 32.6393C130.087 32.656 129.93 32.7194 129.797 32.8196C129.704 32.9164 129.654 33.05 129.661 33.1835C129.65 33.3238 129.704 33.464 129.807 33.5608C129.924 33.6543 130.07 33.701 130.216 33.691C130.419 33.7044 130.615 33.6209 130.752 33.4707V33.4673Z" fill="#0560FB"/>
<path d="M135.079 33.4203L135.332 34.1415C135.216 34.2349 135.079 34.3017 134.937 34.3451C134.763 34.3952 134.58 34.4186 134.401 34.4186C134.051 34.4453 133.705 34.3251 133.449 34.0847C133.209 33.8076 133.09 33.447 133.116 33.083V31.2467H132.537V30.4654H133.123V29.7109L134.091 29.554V30.4654H135.186V31.2367H134.091V33.0029C134.078 33.1532 134.121 33.3001 134.211 33.4203C134.297 33.5071 134.421 33.5572 134.543 33.5505C134.703 33.5538 134.863 33.5037 134.993 33.4103L135.079 33.4203Z" fill="#0560FB"/>
<path d="M136.028 29.855C135.805 29.628 135.805 29.2641 136.028 29.037C136.141 28.9268 136.297 28.8701 136.454 28.8767C136.56 28.8767 136.666 28.9001 136.763 28.9502C136.85 28.9969 136.923 29.0671 136.976 29.1505C137.072 29.3342 137.072 29.5545 136.976 29.7382C136.926 29.825 136.853 29.8951 136.763 29.9418C136.666 29.9919 136.56 30.0186 136.454 30.0153C136.297 30.022 136.141 29.9652 136.028 29.855ZM135.971 34.3457V30.466H136.94V34.3323L135.971 34.3457Z" fill="#0560FB"/>
<path d="M138.736 34.1866C138.45 34.0297 138.221 33.7926 138.071 33.5021C137.755 32.811 137.755 32.0163 138.071 31.3252C138.217 31.0347 138.45 30.7944 138.736 30.6374C139.365 30.3269 140.104 30.3269 140.733 30.6374C141.019 30.7944 141.252 31.0347 141.398 31.3252C141.714 32.0163 141.714 32.811 141.398 33.5021C141.248 33.7926 141.019 34.0297 140.733 34.1866C140.104 34.5004 139.365 34.5004 138.736 34.1866ZM140.626 32.4136C140.653 32.0965 140.569 31.7793 140.396 31.5155C140.233 31.3185 139.984 31.215 139.731 31.2284C139.132 31.2284 138.836 31.6257 138.836 32.4136C138.836 33.2016 139.132 33.5956 139.731 33.5956C140.33 33.5956 140.626 33.2016 140.626 32.4136Z" fill="#0560FB"/>
<path d="M142.523 34.3459V30.4662H143.455V31.0338L143.529 31.0506C143.951 30.3861 144.829 30.1925 145.491 30.6165C145.558 30.6566 145.618 30.7067 145.674 30.7567C145.9 31.0606 146.014 31.4378 145.987 31.8185V34.3326H145.019V31.9387C145.036 31.7417 144.982 31.5413 144.866 31.3811C144.733 31.2576 144.553 31.1941 144.374 31.2108C144.121 31.1908 143.874 31.2909 143.708 31.4812C143.531 31.7283 143.448 32.0288 143.475 32.3293V34.3326L142.523 34.3459Z" fill="#0560FB"/>
<path d="M9.22005 11.4352C8.03552 11.4352 6.98078 12.7974 7.78928 14.0429L14.444 24.2061C14.983 25.0476 15.9146 25.5517 16.9128 25.5417C17.7746 25.5517 18.5932 25.1744 19.1455 24.51L19.2786 24.3497L34.8106 6.00298C35.4128 5.27846 35.3164 4.20003 34.5943 3.5957C33.9455 3.05148 33.0005 3.06817 32.3716 3.62909L16.8729 17.6688L10.2914 11.8559C9.99864 11.5888 9.61603 11.4385 9.22005 11.4352Z" fill="#2AA509"/>
<path d="M5.03759 2.00334C2.25593 2.00668 0.00332692 4.26705 0 7.0583V30.7638C0.00998191 33.5517 2.25926 35.8054 5.03759 35.8088H28.6617C31.4433 35.8088 33.696 33.5451 33.6993 30.7538V13.8294L30.7546 17.3084V30.7605C30.7546 31.9191 29.8162 32.8606 28.6617 32.8606H5.03759C3.883 32.8606 2.94802 31.9191 2.94469 30.7605V7.05495C2.94469 5.89639 3.883 4.95818 5.03759 4.95484H24.9251L28.1859 2H5.03759V2.00334Z" fill="#0560FB"/>
</svg>
